<?xml version="1.0" encoding="UTF-8"?>
<svg xmlns="http://www.w3.org/2000/svg" viewBox="0 0 820 820">
  <defs>
    <style>
      .cls-1 {
        stroke: #000;
        stroke-miterlimit: 10;
      }

      .cls-2, .cls-3, .cls-4, .cls-5, .cls-6 {
        stroke-width: 0px;
      }

      .cls-3 {
        fill: #f8e48b;
      }

      .cls-4 {
        fill: #ff7bac;
      }

      .cls-5 {
        fill: #fff;
      }

      .cls-6 {
        fill: #d5982f;
      }
    </style>
  </defs>
  <g id="pelache_blanc" data-name="pelache blanc">
    <path class="cls-5" d="M263.91,141.88s-84.49-59.82-104.2-49.35c-5.42,10.95,2.04,94.86,7.67,110.67-3.76,6.61-67.98,112.44,45.82,176.13,3.61,4.36.36,12.24.36,12.24,0,0-36.22,95.44-39.39,122.94s-18.23,96.03-18.23,96.03c0,0-2.29,49.43,9.88,60.95-.65,3.05-29.29,10.92-32.56,25.72s-11.44,28.63,13.15,46.71c10.18,4.17,34.49,10.49,49.04,7.29s31.71-23.98,31.71-23.98l7.21-21.48,15.13,4.62s5.82,17.25,10.16,21.45,11.85,11.96,28.59,11.08,35.27-.19,35.27-.19l20.23-12.07,6.75-18.44,63.44-1.68,3.59,18.03,13.81,12.77,30.25,10.18s33.42.35,43.91-7.57,15.27-20.8,15.27-20.8c0,0-1.78-18.12-6.28-23.62s15.49,0,15.49,0l9.7,21.38,22.53,13.7,20.71.24,18.13-9s14.51-12.82,11.72-26.32-11.79-21.5-11.79-21.5l-21.33-6.52,13.39-24.28,3.18-32.08-4.53-28.56-11.73-31.33,41.91-6.94,45.31-19.96,31.4-27.51,14.41-25.83s4-35.65,0-50.82-14.31-43.75-14.31-43.75l-10.36-28.28s1.22-28.21,26.44-30.18,46.06-4.17,46.06-4.17c0,0,32.55-7.74,1.86-30.26-9.39-5.05-30.4-10.16-30.4-10.16l-46.94,6.51-40.59,21.46-11.76,27.67v27l10,41,9,32-3,28s-5,20-11,23-25,22-25,22l-20.12,8.5-31.88,2.5-15.76-26.14-20.54-33.18-22.85-34.88-30.36-43.29s49.38-19.34,60.94-42.92,25.19-58.58,25.19-58.58c0,0,.37-52-14.13-66.5,8-11,39.75-67.83,28.12-109.16-13.25-.67-65.12,15.71-116.87,47.19-19.5-6.05-144.93-26.77-190.84-7.65Z"/>
  </g>
  <g id="Couleur_thomas" data-name="Couleur thomas">
    <path class="cls-3" d="M144.7,283.47s8.06-72.08,22.68-80.27,96.53-61.32,96.53-61.32c0,0,110.59-18.83,190.84,7.65,12.5,9.95,88.69,61.46,88.69,61.46,0,0,20.98,51.27,13.27,66.14s-161.71-13.13-181.71-40.13c-2-2-24-31-43-3-3,5-58.6,55.94-187.3,49.47Z"/>
    <path class="cls-6" d="M167.38,203.19s-18.11-102.8-10.25-109c7.73-3.39,49.1-2.29,103.48,45.76,4.77,5.09.97,54.05-6.32,60.05s-86.92,3.19-86.92,3.19Z"/>
    <path class="cls-6" d="M454.75,149.53s102.53-58.45,114.39-48.99.75,86.44-25.69,110.45c-7.89,3.02-68.44,6.01-80.44-1.99s-8.25-59.47-8.25-59.47Z"/>
    <path class="cls-4" d="M190.08,132.75s-13.08,16.25-.08,45.25c9,1,43.22-7.86,46.11-25.93-7.22-7.14-37.95-24.57-46.03-19.32Z"/>
    <path class="cls-4" d="M485.92,162.96s44.08-18.96,49.08-15.96-17,41-17,41c0,0-31.16-2.08-32.08-25.04Z"/>
    <path class="cls-3" d="M561.5,517.5s40.07,1.91,51.29-9.8,31.54-22.58,34.88-40.14,4.8-34.19,2.07-45.87-17.23-66.7-17.23-66.7c0,0-2.3-43.26,21.6-55.62s57.37-22.24,57.37-22.24c0,0,27.37.35,39.45,5.61s42.55,24.93,4.31,32.59c-9.47,3.33-32.24,4.67-32.24,4.67l-28,12-6.54,14.87,14.97,44.69s19.41,51.46,10.49,67.95-13.08,38.05-13.08,38.05c0,0-28.71,32.03-43.77,36.74s-37.11,23.18-77.09,20.94c-4.95-10.47-18.47-37.73-18.47-37.73Z"/>
    <path class="cls-3" d="M435.83,590.69c7.43-1.11,13.06,1.99,18.86,6.18,5.3,3.83,11.05,6.62,17.31,8.51,4.94,1.49,7.05-6.23,2.13-7.71-8.06-2.43-13.55-7.28-20.65-11.36-6.12-3.52-12.88-4.37-19.78-3.33-5.07.76-2.92,8.47,2.13,7.71h0Z"/>
    <path class="cls-3" d="M443.22,660.21c12.18,1.11,19.56-8.83,30-12.86,4.75-1.83,2.69-9.57-2.13-7.71-9.28,3.58-17.34,13.53-27.87,12.57-5.13-.47-5.09,7.54,0,8h0Z"/>
    <polygon class="cls-3" points="441.03 646.8 434.5 582.5 475.5 603.5 474.53 646.8 441.5 658.5 441.03 646.8"/>
    <path class="cls-3" d="M160.61,596.24c6.87-.55,6.36,9.81,6.54,14.2.22,5.47,1.33,10.49,5,14.71,3.22,3.7,7.73,5.99,10.94,9.66,4.15,4.74,2.16,10.59,1.25,16.16-.76,4.66-1.06,9.57,1.32,13.85,3.06,5.51,9.43,8.58,14.6,11.73,11.15,6.81,23.4,14.21,28,27.19,1.71,4.82,9.44,2.74,7.71-2.13-4.6-12.98-15-21.55-26.33-28.68-5.21-3.28-15.88-7.31-17.65-13.73-1.61-5.87,1.97-12.52,1.68-18.52-.25-5.38-2.81-9.7-6.72-13.26-4.1-3.75-9.84-6.53-11.31-12.31-1.63-6.43.27-13.06-2.93-19.22-2.4-4.63-6.72-8.07-12.12-7.64-5.1.41-5.14,8.41,0,8h0Z"/>
    <path class="cls-3" d="M223.96,704.12c-3.48,4.87-15.29,2.51-20.12,1.7-7.15-1.2-14.15-3.42-20.8-6.28s-12.67-6.17-18.67-9.85c-5.44-3.35-10.4-6.69-16.94-7.14-5.14-.35-5.12,7.65,0,8,7.36.51,14.83,7.41,21.14,10.82,7.13,3.85,14.6,7.19,22.35,9.57,11.16,3.43,31.76,8.68,39.94-2.78,3-4.2-3.94-8.2-6.91-4.04h0Z"/>
    <path class="cls-3" d="M266.64,519c3.21,7.09,9.11,12.23,15.64,16.25,3.78,2.33,7.79,4.29,11.88,5.99,2.21.92,4.45,1.77,6.74,2.52.55.18,6,2.16,5.31.78l1.44-5.47-.2.12h4.04l-.24-.17,1.44,5.47.09-.12c3.11-4.1-3.84-8.1-6.91-4.04l-.09.12c-1.38,1.82-.16,4.36,1.44,5.47l.24.17c1.14.79,2.89.69,4.04,0l.2-.12c1.94-1.16,2.41-3.52,1.44-5.47-1.48-2.96-5.57-3.07-8.38-3.92-4.55-1.38-8.96-3.15-13.19-5.32-7.41-3.8-14.46-8.48-18-16.3-2.12-4.68-9.02-.62-6.91,4.04h0Z"/>
    <path class="cls-3" d="M315.47,668.57c-4.78.31-10.54.54-15.07-1.35s-5.1-5.88-6.44-9.99c-2.59-8.01-7.22-11.52-15.63-12.12l2.83,6.83.59-.47-2.83,1.17.75.07c5.13.45,5.1-7.56,0-8-1.8-.16-2.83.5-4.17,1.58-2.95,2.36-.26,6.61,2.83,6.83,5.42.39,6.78,2.6,8.27,7.41,1.03,3.32,2.01,6.76,4.26,9.49,5.61,6.83,16.53,7.08,24.61,6.56,5.11-.33,5.15-8.33,0-8h0Z"/>
    <path class="cls-3" d="M254.61,398.8l.77.31-2.79-2.79c-.24-.68-3.11,2.82-3.55,3.25-2.05,2-4.26,3.28-6.97,4.14-4.49,1.41-9.25,1.87-13.79,3.09-9.25,2.5-18,6.61-25.93,11.95-4.25,2.86-.25,9.79,4.04,6.91,5.95-4,12.27-7.32,19.06-9.63,6.39-2.17,13.16-2.71,19.53-4.83,5.55-1.85,23.77-15.31,11.78-20.09-4.78-1.91-6.86,5.83-2.13,7.71h0Z"/>
    <path class="cls-3" d="M434.09,395.29c13.37,20.12,40.05,20.12,60.8,26.86,4.91,1.6,7.01-6.13,2.13-7.71-18.06-5.87-44.35-5.63-56.02-23.18-2.84-4.27-9.77-.27-6.91,4.04h0Z"/>
    <polygon class="cls-3" points="269.5 522.5 312.09 544.82 312.9 666.66 315.47 676.26 292.48 669.65 282.5 651.5 274.58 648.6 269.5 524.06 269.5 522.5"/>
    <polygon class="cls-3" points="144 682 201.35 710.73 232.11 707.5 223.47 686.54 188.71 661.94 189 635 171.41 614.04 167.94 592.14 158 589 158 651 167.94 676.26 144 682"/>
    <polygon class="cls-3" points="217 382.14 202 421 262 397 217 382.14"/>
    <polyline class="cls-3" points="435 391 460.41 410 498 417 472.69 380.42 434.77 391.56"/>
    <path class="cls-6" d="M156.77,613.71s13.23,12.29,18.23,12.29-18.91,0-18.91,0l.68-12.29Z"/>
    <path class="cls-6" d="M156.29,636.34s20.71,6.66,26.71,2.66-17,12.81-25,8.41-1.71-11.07-1.71-11.07Z"/>
    <path class="cls-6" d="M161.42,660.67s21.42,4.33,26-2.17c-1.85,6-12.64,9.91-21.53,9.21s-4.47-7.04-4.47-7.04Z"/>
    <path class="cls-6" d="M270.09,539.96s19.67,12.86,30.29,8.45c-2.77,7.18-10.38,13.59-28.38,12.59-1-6-1.91-21.04-1.91-21.04Z"/>
    <path class="cls-6" d="M272.06,579.12s19.27,14.76,37.61,8.82c1.67,3.12-14.84,12.02-34.25,6.04-1.82-5.97-3.35-14.86-3.35-14.86Z"/>
    <path class="cls-6" d="M273.29,608.94s22.71,23.06,37.71,14.06c0,4-8,14-36,13-1-10-1.71-27.06-1.71-27.06Z"/>
    <path class="cls-6" d="M297.3,137.33s.7,39.67,7.7,45.67,8.54-46.43,8.54-46.43l-16.24.77Z"/>
    <path class="cls-6" d="M331.18,135.71s-2.18,44.29,8.82,45.29,11.56-45.29,11.56-45.29h-20.38Z"/>
    <path class="cls-6" d="M376,138s-5.53,40.05,7.24,41.02,10.47-40.15,10.47-40.15l-17.7-.87Z"/>
    <path class="cls-6" d="M159,220s25,12,38,8c-6,6-34,9-43,7,1-5,5-15,5-15Z"/>
    <path class="cls-6" d="M152.24,244.06s25,12,38,8c-6,6-34,9-43,7,1-5,5-15,5-15Z"/>
    <path class="cls-6" d="M548.98,225.95s-24.98,13.05-42.98,8.05c15,6,37.77,7.08,47.89,2.54-1.77-5.08-4.9-10.59-4.9-10.59Z"/>
    <path class="cls-6" d="M556,248s-40,10.59-50,2.29c2,7.41,35,18.71,51,12.71,0-6-1-15-1-15Z"/>
    <path class="cls-6" d="M633.47,492.64l-3.79,3.83c-3.11,3.13.98,8.89,4.85,6.28,3.14-2.12,6.37-3.9,9.83-5.41l-4.85-6.28c-2.87,2.58-5.74,5.16-8.61,7.74-3.33,2.99,1.09,8.9,4.85,6.28,2.57-1.79,5.13-3.58,7.7-5.37l-5.47-5.47c-1.58,2.2-3.28,4.18-5.17,6.11-3.05,3.12,1.06,9.05,4.85,6.28,3.19-2.33,6.46-4.47,9.86-6.47l-4.85-6.28c-2.37,2.76-4.91,5.26-7.69,7.61-3.44,2.89,1.13,8.92,4.85,6.28s7.67-5.1,11.74-7.3l-4.85-6.28c-3.12,3.07-6.31,6.04-9.6,8.94-3.47,3.06.98,8.48,4.85,6.28s7.38-4.19,11.08-6.29l-4.85-6.28c-2.4,2.25-4.79,4.5-7.19,6.76-3.39,3.19.93,8.38,4.85,6.28,2.24-1.2,4.49-2.4,6.73-3.6l-4.85-6.28c-1.73,1.96-3.52,3.85-5.39,5.68-3.25,3.19.9,8.56,4.85,6.28,3.3-1.91,6.6-3.81,9.91-5.72l-4.85-6.28c-2.84,2.59-5.67,5.18-8.51,7.77-3.5,3.19.95,8.25,4.85,6.28,4.87-2.46,9.74-4.91,14.6-7.37l-4.85-6.28c-4.33,3.36-8.59,6.76-12.45,10.67-2.67,2.7,0,8.06,3.89,6.69,4.75-1.68,9.13-3.86,13.25-6.77l-4.85-6.28c-2.86,2.76-5.72,5.52-8.58,8.28s.06,8.1,3.89,6.69c5.04-1.86,9.77-4.17,14.26-7.12l-4.85-6.28c-2.9,2.83-5.79,5.66-8.69,8.49-2.4,2.35-.67,6.99,2.83,6.83,5.56-.25,8.66-4.75,13.79-5.74l-3.89-6.69c-2.41,2.85-5,5.42-8.02,7.64-3.45,2.55-1.59,8.59,3.08,7.31s8.41-3.67,12.23-6.41l-4.85-6.28c-1.91,2.14-3.77,4.31-5.59,6.52-2.87,3.49.63,8.35,4.85,6.28,1.93-.95,3.85-1.89,5.78-2.84l-4.85-6.28c-1.91,2.36-3.95,4.02-6.65,5.37-4.61,2.3-.56,9.2,4.04,6.91,3.29-1.64,5.96-3.76,8.27-6.62,2.83-3.5-.62-8.36-4.85-6.28-1.93.95-3.85,1.89-5.78,2.84l4.85,6.28c1.82-2.21,3.68-4.39,5.59-6.52,2.85-3.19-.95-9.07-4.85-6.28-3.26,2.33-6.4,4.53-10.32,5.6l3.08,7.31c3.57-2.64,6.77-5.5,9.63-8.89,2.62-3.1.13-7.46-3.89-6.69s-7.57,5.27-11.67,5.45l2.83,6.83c2.9-2.83,5.79-5.66,8.69-8.49,3.19-3.11-.99-8.82-4.85-6.28s-7.95,4.69-12.35,6.31l3.89,6.69c2.86-2.76,5.72-5.52,8.58-8.28,3.19-3.08-1.07-8.96-4.85-6.28-3.56,2.52-7.21,4.5-11.34,5.96l3.89,6.69c3.85-3.91,8.12-7.31,12.45-10.67,3.76-2.91-1.02-8.21-4.85-6.28-4.87,2.46-9.74,4.91-14.6,7.37l4.85,6.28c2.84-2.59,5.67-5.18,8.51-7.77,3.4-3.1-.96-8.53-4.85-6.28-3.3,1.91-6.6,3.81-9.91,5.72l4.85,6.28c1.86-1.83,3.65-3.72,5.39-5.68,2.99-3.37-.74-8.48-4.85-6.28-2.24,1.2-4.49,2.4-6.73,3.6l4.85,6.28c2.4-2.25,4.79-4.5,7.19-6.76,3.35-3.15-.94-8.5-4.85-6.28-3.69,2.1-7.38,4.19-11.08,6.29l4.85,6.28c3.28-2.89,6.48-5.87,9.6-8.94,3.29-3.24-.89-8.42-4.85-6.28s-7.96,4.62-11.74,7.3l4.85,6.28c2.78-2.34,5.32-4.85,7.69-7.61,2.86-3.32-.74-8.69-4.85-6.28-3.4,2-6.68,4.14-9.86,6.47l4.85,6.28c2.36-2.42,4.46-4.99,6.42-7.73,2.31-3.22-2.26-7.71-5.47-5.47-2.57,1.79-5.13,3.58-7.7,5.37l4.85,6.28c2.87-2.58,5.74-5.16,8.61-7.74,3.65-3.28-1-7.96-4.85-6.28-3.47,1.52-6.7,3.29-9.83,5.41l4.85,6.28,3.79-3.83c3.63-3.66-2.03-9.32-5.66-5.66h0Z"/>
    <path class="cls-6" d="M651.93,461.71l-2.62,3.6c-2.75,3.78,3.1,7.87,6.28,4.85,3.31-3.14,6.61-6.29,9.92-9.43l-6.28-4.85c-2.34,3.42-4.68,6.84-7.02,10.26-2.67,3.9,3.06,7.78,6.28,4.85,4.55-4.13,9.11-8.27,13.66-12.4l-6.28-4.85c-3.61,5.37-7.56,10.42-11.9,15.23-3.46,3.83,1.82,9.1,5.66,5.66,4.94-4.42,9.88-8.85,14.81-13.27l-6.28-4.85c-3.1,4.39-6.19,8.79-9.29,13.18-2.75,3.9,3.05,7.69,6.28,4.85,4.88-4.29,9.36-8.92,13.48-13.94l-6.28-4.85c-3.11,5.42-6.97,9.99-11.73,14.02l6.28.81c-3.04-4.71-5-9.64-6.07-15.13-.65-3.34-5.79-3.93-7.31-.96-1.78,3.49-3.84,6.59-6.46,9.51-2.84,3.17.99,9.13,4.85,6.28,4.72-3.48,9.43-6.97,14.14-10.46l-5.88-4.52c-1.37,3.64-3.02,7.1-4.93,10.49s1.99,7.65,5.47,5.47c4.49-2.81,8.98-5.61,13.47-8.42l-5.47-5.47c-2.66,3.65-5.31,7.29-7.97,10.94-2.34,3.21,2.27,7.72,5.47,5.47,5.21-3.65,10.28-7.5,15.21-11.52l-6.28-4.85c-2.85,4.99-5.69,9.97-8.54,14.96-2.19,3.83,3.19,8.34,6.28,4.85,4.67-5.28,9.35-10.56,14.02-15.84l-6.28-4.85c-3.03,5.67-6.07,11.34-9.1,17.01-2.09,3.91,3.03,8.21,6.28,4.85,4.6-4.76,9.21-9.52,13.81-14.27l-6.28-4.85c-2.71,4.92-5.42,9.83-8.13,14.75-2.13,3.86,3.13,8.31,6.28,4.85,4.06-4.46,8.13-8.93,12.19-13.39l-6.69-3.89c-2.15,5.15-4.31,10.29-6.46,15.44-1.9,4.55,4.84,6.34,7.31,3.08,3.58-4.72,7.16-9.44,10.74-14.17l-6.91-4.04c-3.14,5.98-6.28,11.96-9.42,17.94-2.02,3.84,3.15,8.42,6.28,4.85,4.59-5.22,8.9-10.66,12.96-16.31l-6.91-4.04c-2.39,5.5-4.78,11-7.18,16.5-1.5,3.45,1.71,7.66,5.47,5.47,6.02-3.49,6.07-10.49,10.76-14.91l-6.69-3.89c-1.92,5.59-3.96,11.14-6.13,16.65-1.44,3.66,4.21,6.92,6.69,3.89,3.41-4.17,6.33-8.55,8.69-13.4l-7.45-2.02c-.25,2.82-1.12,5.12-2.58,7.54l6.91,4.04c1.53-3.42,3.21-6.75,5.05-10.01l-7.45-2.02c.24,2.57-.21,4.34-1.69,6.46-2.94,4.24,3.99,8.24,6.91,4.04,2.21-3.17,3.13-6.64,2.78-10.49s-5.36-5.73-7.45-2.02c-1.84,3.26-3.52,6.59-5.05,10.01-2.06,4.6,4.18,8.54,6.91,4.04,2.21-3.65,3.3-7.34,3.67-11.57.34-3.91-5.75-5.51-7.45-2.02-2.06,4.21-4.47,8.15-7.44,11.78l6.69,3.89c2.16-5.51,4.21-11.05,6.13-16.65,1.36-3.95-3.94-6.48-6.69-3.89-3.9,3.67-4.61,11.03-9.14,13.66l5.47,5.47c2.39-5.5,4.78-11,7.18-16.5,2.05-4.7-3.86-8.27-6.91-4.04-3.66,5.09-7.57,9.97-11.7,14.69l6.28,4.85c3.14-5.98,6.28-11.96,9.42-17.94,2.46-4.68-3.86-8.05-6.91-4.04-3.58,4.72-7.16,9.44-10.74,14.17l7.31,3.08c2.15-5.15,4.31-10.29,6.46-15.44,1.57-3.75-4.14-6.69-6.69-3.89-4.06,4.46-8.13,8.93-12.19,13.39l6.28,4.85c2.71-4.92,5.42-9.83,8.13-14.75,2.15-3.9-3.05-8.19-6.28-4.85-4.6,4.76-9.21,9.52-13.81,14.27l6.28,4.85c3.03-5.67,6.07-11.34,9.1-17.01,2.06-3.84-3.15-8.39-6.28-4.85-4.67,5.28-9.35,10.56-14.02,15.84l6.28,4.85c2.85-4.99,5.69-9.97,8.54-14.96,2.37-4.16-2.89-7.61-6.28-4.85-4.41,3.59-8.94,7.01-13.59,10.27l5.47,5.47c2.66-3.65,5.31-7.29,7.97-10.94,2.41-3.3-2.24-7.49-5.47-5.47-4.49,2.81-8.98,5.61-13.47,8.42l5.47,5.47c2.24-4,4.12-8.12,5.74-12.41,1.18-3.13-3.12-6.56-5.88-4.52-4.71,3.49-9.43,6.97-14.14,10.46l4.85,6.28c3.05-3.4,5.63-7.06,7.71-11.13l-7.31-.96c1.19,6.13,3.48,11.8,6.87,17.04,1.48,2.3,4.27,2.51,6.28.81,5.25-4.44,9.57-9.68,12.99-15.64,2.18-3.8-3.32-8.46-6.28-4.85-4.12,5.03-8.6,9.66-13.48,13.94l6.28,4.85c3.1-4.39,6.19-8.79,9.29-13.18,2.73-3.88-3.06-7.73-6.28-4.85l-14.81,13.27,5.66,5.66c4.79-5.3,9.17-10.92,13.15-16.85,2.63-3.92-3.05-7.78-6.28-4.85-4.55,4.13-9.11,8.27-13.66,12.4l6.28,4.85c2.34-3.42,4.68-6.84,7.02-10.26,2.63-3.85-3.09-7.89-6.28-4.85l-9.92,9.43,6.28,4.85,2.62-3.6c3.03-4.17-3.91-8.17-6.91-4.04h0Z"/>
    <path class="cls-6" d="M596.45,525.58c4.64-1.36,9.27-2.72,13.91-4.08l-2.13-7.71-20.54,7.18c-3.95,1.38-3.7,8.42,1.06,7.86,7.09-.84,13.92-2.35,20.65-4.78l-3.08-7.31c-5.13,2.62-10.26,5.23-15.39,7.85-4.19,2.14-1.19,8.26,3.08,7.31,5.4-1.2,10.81-2.4,16.21-3.59l-2.13-7.71c-5.65,2.31-11.31,4.61-16.96,6.92-4.79,1.95-3,8.48,2.13,7.71,7.61-1.14,15.23-2.28,22.84-3.43l-3.89-6.69c-1.62,1.77-4.66,2.2-6.85,2.91-2.6.84-5.19,1.68-7.79,2.52-3.43,1.11-4.17,7.02,0,7.71,6.35,1.06,12.13-.96,18.45-.98l-1.06-7.86c-5.06,1-14.26,2.04-15.99,7.82-.38,1.28-.01,2.99,1.03,3.89,4.09,3.54,12.11,1.68,17.14,1.59l-1.06-7.86c-5.63,1.36-10.97,3.37-16.14,5.97-2.93,1.47-2.24,5.28,0,6.91,4.65,3.38,12.73.78,17.9-.08,4.44-.74,3.41-8.09-1.06-7.86-4.19.22-8.08.94-12.03,2.38-3.9,1.42-3.74,8.42,1.06,7.86,3.9-.46,7.69-1.12,11.49-2.13,4.97-1.33,2.86-9.04-2.13-7.71-3.09.83-6.18,1.47-9.36,1.85l1.06,7.86c3.27-1.19,6.42-1.91,9.9-2.1l-1.06-7.86c-2.48.41-9.43,2.56-11.73.88v6.91c4.57-2.3,9.26-3.96,14.23-5.16,4.39-1.06,3.45-7.93-1.06-7.86s-9.25.62-13.7.1l2.83,1.17-.61-.53,1.03,3.89.26-.88-1.84,2.39c3.36-2.16,8.12-2.98,11.98-3.73,4.49-.88,3.37-7.87-1.06-7.86-5.42.02-10.94,2.17-16.33,1.27v7.71c5.7-1.84,13.95-2.89,18.17-7.49,2.89-3.14-.05-7.26-3.89-6.69-7.61,1.14-15.23,2.28-22.84,3.43l2.13,7.71c5.65-2.31,11.31-4.61,16.96-6.92,4.67-1.9,3.03-8.86-2.13-7.71s-10.81,2.4-16.21,3.59l3.08,7.31c5.13-2.62,10.26-5.23,15.39-7.85,3.98-2.03,1.21-8.86-3.08-7.31-6.01,2.17-12.17,3.74-18.52,4.5l1.06,7.86c6.85-2.39,13.69-4.78,20.54-7.18,4.8-1.68,2.87-9.18-2.13-7.71-4.64,1.36-9.27,2.72-13.91,4.08-4.93,1.45-2.83,9.17,2.13,7.71h0Z"/>
    <path class="cls-6" d="M648.41,414.53c2.5,5.07,4.19,10.34,5.25,15.89.86,4.46,7.96,3.4,7.86-1.06-.18-8.03-1.58-15.82-4.34-23.37l-7.31,3.08c3.32,5.78,6.28,11.71,8.9,17.83,1.67,3.9,7.32,1.58,7.45-2.02.24-6.63-.4-13.13-1.84-19.61l-7.31,3.08c2.67,6.15,4.41,12.58,5.46,19.2.71,4.48,8,3.39,7.86-1.06-.22-7.09-.16-14.16.19-21.25l-7.45,2.02c2.79,6.39,3.77,13.09,3.32,20.02-.29,4.49,6.86,5.45,7.86,1.06,1.55-6.83,3.09-13.66,4.64-20.48h-7.71c1.09,7.85,2.18,15.7,3.27,23.55.4,2.9,4.89,3.93,6.69,1.77,2.52-3.05,3.07-6.15,3.73-9.99.84-4.89,1.67-9.78,2.51-14.67h-7.71c2.03,7.41,2.92,14.83,2.74,22.52-.11,4.4,7.11,5.59,7.86,1.06,1.23-7.47,2.46-14.94,3.69-22.41h-7.71c1.73,7.36,1.46,14.58-.69,21.82l7.71,2.13c1.07-7.17,2.96-14.12,5.89-20.76l-7.31-.96c2.34,6.68,3.25,13.54,2.26,20.59-.69,4.93,6.37,7.26,7.71,2.13,1.81-6.89,3.61-13.78,5.42-20.67h-7.71c1.89,6.42,2.04,12.93,2.09,19.57.03,4.35,7.05,5.64,7.86,1.06,1.07-6.11,1.9-12.25,2.48-18.43l-7.86,1.06c1.77,5.03,2.48,10.1,1.72,15.41-.73,5.04,6.98,7.21,7.71,2.13.97-6.76.56-13.19-1.72-19.66-1.53-4.36-7.43-3.44-7.86,1.06-.51,5.47-1.24,10.89-2.19,16.3l7.86,1.06c-.05-7.34-.28-14.62-2.37-21.7-1.1-3.72-6.69-3.89-7.71,0-1.81,6.89-3.61,13.78-5.42,20.67l7.71,2.13c1.19-8.52.59-16.69-2.26-24.84-1.01-2.88-5.8-4.38-7.31-.96-3.23,7.31-5.52,14.76-6.7,22.67-.74,4.96,6.21,7.2,7.71,2.13,2.55-8.6,2.73-17.35.69-26.07-.86-3.67-7.06-3.96-7.71,0-1.23,7.47-2.46,14.94-3.69,22.41l7.86,1.06c.2-8.36-.81-16.58-3.02-24.64-.98-3.58-7.02-4.04-7.71,0-.61,3.59-1.23,7.17-1.84,10.76-.49,2.88-.42,8.06-2.34,10.37l6.69,1.77c-1.09-7.85-2.18-15.7-3.27-23.55-.55-3.98-6.89-3.64-7.71,0-1.55,6.83-3.09,13.66-4.64,20.48l7.86,1.06c.54-8.43-1.05-16.34-4.42-24.06-1.71-3.91-7.28-1.56-7.45,2.02-.35,7.08-.41,14.16-.19,21.25l7.86-1.06c-1.17-7.35-3.31-14.29-6.27-21.11-1.87-4.33-8.25-1.13-7.31,3.08,1.29,5.79,1.77,11.56,1.56,17.48l7.45-2.02c-2.62-6.13-5.58-12.06-8.9-17.83-2.2-3.82-8.9-1.28-7.31,3.08,2.51,6.9,3.89,13.89,4.05,21.24l7.86-1.06c-1.2-6.24-3.25-12.1-6.06-17.8-2.28-4.62-9.18-.57-6.91,4.04h0Z"/>
    <path class="cls-6" d="M635.85,365.15c1.35,3.71,2.7,7.43,4.05,11.14l7.71-2.13c-1.85-5.05-3.7-10.1-5.55-15.15l-7.31,3.08c2.89,6.56,5.79,13.13,8.68,19.69,1.77,4.01,7.14,1.46,7.45-2.02.77-8.38-4.82-15.37-4.67-23.58l-7.86,1.06,6.55,22.74c1.45,5.05,8.53,2.86,7.71-2.13-1.25-7.7-2.51-15.41-3.76-23.11l-7.31,3.08c3.78,7.54,6.48,15.4,8.27,23.64,1.02,4.68,7.48,3.17,7.86-1.06.78-8.69-3.91-17.11-2.49-25.69l-7.31.96c4.05,7.32,6.08,15.12,6.14,23.48h8c-.48-4.23-.97-8.47-1.45-12.7-.08-.71-1.59-10.01-1.3-10.19l-5.47-1.44c4.06,7.44,3.98,15.86,3.88,24.11-.06,5.15,7.91,5.15,8,0,.14-8.02.81-15.98,2.1-23.9l-6.69,1.77c5.7,7.16,4.62,18.08,8.65,26.21,1.87,3.77,7.27,1.67,7.45-2.02.52-10.44-2.37-20.38-5.51-30.22l-7.31,3.08c4.47,9.35,8.34,18.92,11.64,28.74,1.38,4.1,8.02,3.66,7.86-1.06-.36-10.27-3.42-19.92-6.76-29.55l-7.31,3.08c5.34,7.51,8.66,15.75,10.06,24.85.68,4.43,8.19,3.42,7.86-1.06-.71-9.45-2-18.81-3.88-28.1l-7.31,3.08c5.15,6.86,7.78,14.54,7.66,23.15h8c.03-8.5-1.65-16.77-3.49-25.04l-6.69,3.89c4.62,5.67,6.19,12.55,5.28,19.72-.65,5.09,7.35,5.04,8,0,1.2-9.36-1.71-18.14-7.62-25.38-2.71-3.32-7.47.34-6.69,3.89,1.68,7.59,3.23,15.1,3.2,22.91-.02,5.15,7.93,5.15,8,0,.14-9.86-2.81-19.29-8.75-27.19-2.68-3.56-8.25-1.57-7.31,3.08,1.74,8.59,2.94,17.23,3.59,25.97l7.86-1.06c-1.49-9.7-5.18-18.77-10.87-26.76-2.44-3.43-8.9-1.52-7.31,3.08,3.09,8.94,6.13,17.89,6.47,27.42l7.86-1.06c-3.52-10.47-7.69-20.68-12.45-30.65-1.95-4.09-8.68-1.21-7.31,3.08,2.94,9.2,5.72,18.33,5.23,28.1l7.45-2.02c-4.51-9.11-3.29-19.52-9.9-27.83-1.79-2.25-6.22-1.06-6.69,1.77-1.41,8.63-2.23,17.28-2.39,26.02h8c.12-9.74-.2-19.41-4.97-28.15-1.01-1.86-3.68-2.56-5.47-1.44-3.83,2.4-3.89,6.14-3.45,10.26.71,6.52,1.49,13.03,2.23,19.54.57,4.98,8.04,5.28,8,0-.08-9.74-2.52-19-7.24-27.52-1.55-2.81-6.74-2.52-7.31.96-1.57,9.56,3.06,18.35,2.21,27.82l7.86-1.06c-1.94-8.91-5-17.4-9.08-25.55-2.18-4.36-7.99-1.07-7.31,3.08,1.25,7.7,2.51,15.41,3.76,23.11l7.71-2.13-6.55-22.74c-1.25-4.35-7.77-3.47-7.86,1.06-.15,8.25,5.42,15.41,4.67,23.58l7.45-2.02c-2.89-6.56-5.79-13.13-8.68-19.69-1.81-4.11-8.87-1.17-7.31,3.08,1.85,5.05,3.7,10.1,5.55,15.15,1.76,4.79,9.48,2.73,7.71-2.13-1.35-3.71-2.7-7.43-4.05-11.14-1.74-4.8-9.48-2.73-7.71,2.13h0Z"/>
    <path class="cls-6" d="M671.11,373.47l.14-.07c1.65-.79,2.19-2.88,1.84-4.52s-1.57-2.49-3.04-3.1c-1.18-.49-3.09.05-3.89,1.03s-1.31,1.83-1.41,3.12c-.07.88,0,1.76-.06,2.64-.13,1.65-.61,3.24-1.21,4.78-.78,2.01.86,4.39,2.79,4.92,2.26.62,4.14-.77,4.92-2.79,1.23-3.17,1.29-6.21,1.55-9.54l-1.17,2.83.24-.29-3.89,1.03.2.08-2.79-2.79.05.23,1.84-4.52-.14.07c-1.95.94-2.46,3.71-1.44,5.47,1.16,1.99,3.52,2.38,5.47,1.44h0Z"/>
    <path class="cls-6" d="M647.62,306.69c-5.67,4.91-10.12,10.81-13.25,17.64-1.75,3.83,3.02,8.49,6.28,4.85,5.46-6.09,10.92-12.17,16.38-18.26l-6.28-4.85c-3.09,6.58-7.68,11.97-12.5,17.35-2.85,3.18.95,9.08,4.85,6.28,8.02-5.76,15.68-11.98,22.92-18.69l-5.66-5.66c-5.87,6.25-11.74,12.5-17.61,18.76-2.98,3.17.96,8.97,4.85,6.28,8.12-5.62,16.25-11.25,24.37-16.87l-4.85-6.28c-4.55,4.64-9.1,9.28-13.65,13.91-3.1,3.16.95,8.84,4.85,6.28,7.5-4.93,15-9.86,22.5-14.8l-4.85-6.28c-4.83,5.94-9.66,11.88-14.49,17.83-3.26,4.01,1.64,8.92,5.66,5.66,6.77-5.51,13.54-11.01,20.31-16.52l-5.66-5.66c-4.55,5.16-9.1,10.31-13.64,15.47-2.8,3.17,1.04,9.22,4.85,6.28,7.14-5.51,14.77-10.13,22.97-13.9l-4.85-6.28c-5.31,6.19-11.35,11.33-18.35,15.5-4.42,2.63-.44,9.48,4.04,6.91,6.4-3.67,12.79-7.34,19.19-11.02l-5.47-5.47c-3.21,4.27-7.13,7.82-11.6,10.73s-.6,8.94,4.04,6.91c5.35-2.35,10.69-4.69,16.04-7.04l-4.85-6.28c-3.68,3.06-7.36,6.13-11.04,9.19-3.45,2.88,1.16,8.96,4.85,6.28,4.84-3.52,9.68-7.03,14.52-10.55l-4.85-6.28c-1.75,2.24-3.61,3.7-6.18,4.86-4.68,2.12-.62,9.01,4.04,6.91,3.15-1.42,5.67-3.39,7.8-6.12,2.51-3.21-.81-9.21-4.85-6.28-4.84,3.52-9.68,7.03-14.52,10.55l4.85,6.28c3.68-3.06,7.36-6.13,11.04-9.19s-1.05-7.95-4.85-6.28c-5.35,2.35-10.69,4.69-16.04,7.04l4.04,6.91c5.7-3.7,10.39-8.18,14.47-13.6,2.52-3.35-2.26-7.32-5.47-5.47-6.4,3.67-12.79,7.34-19.19,11.02l4.04,6.91c7.55-4.5,14.25-10.08,19.97-16.75,3.03-3.53-.7-8.19-4.85-6.28-8.2,3.77-15.83,8.39-22.97,13.9l4.85,6.28c4.55-5.16,9.1-10.31,13.64-15.47,3.46-3.92-1.7-8.88-5.66-5.66-6.77,5.51-13.54,11.01-20.31,16.52l5.66,5.66c4.83-5.94,9.66-11.88,14.49-17.83,2.65-3.26-.75-8.98-4.85-6.28-7.5,4.93-15,9.86-22.5,14.8l4.85,6.28c4.55-4.64,9.1-9.28,13.65-13.91,3.07-3.13-1-8.95-4.85-6.28-8.12,5.62-16.25,11.25-24.37,16.87l4.85,6.28c5.87-6.25,11.74-12.5,17.61-18.76,3.53-3.76-1.87-9.16-5.66-5.66-6.75,6.25-13.83,12.07-21.31,17.43l4.85,6.28c5.24-5.86,10.38-11.8,13.75-18.97,1.8-3.84-3.03-8.47-6.28-4.85-5.46,6.09-10.92,12.17-16.38,18.26l6.28,4.85c2.87-6.26,6.78-11.51,11.99-16.02,3.9-3.37-1.78-9.01-5.66-5.66h0Z"/>
    <path class="cls-6" d="M730.53,277.27c-6.48-.32-12.81.39-19.08,2.05-3.04.81-4.24,5.91-.96,7.31,7.23,3.09,16.97,1.41,24.68,1.39l-1.06-7.86c-6.58,1.09-13.17,2.18-19.75,3.27-4.75.79-3.1,7.48,1.06,7.86,5.96.54,11.84.42,17.77-.34,5-.64,5.28-7.68,0-8-6.58-.4-12.59,1.56-18.66,3.88-3.41,1.3-3.76,5.18-.96,7.31,2.23,1.7,5.13,1.31,7.8,1.33,3.84.03,7.69.05,11.53.08v-8c-7.94.57-15.33,2.45-22.62,5.64-4.07,1.78-1.39,7.07,2.02,7.45,6.87.77,13.61.17,20.26-1.68,4.46-1.24,3.38-7.62-1.06-7.86-7.4-.4-13.95,1.73-19.75,6.29-2.83,2.23-.37,6.84,2.83,6.83,5.91-.02,11.59-.97,17.15-2.96,4.81-1.72,2.95-8.89-2.13-7.71s-14.84,3.3-15.99,9.6c-.43,2.39,1.06,5.23,3.86,5.06,5.12-.3,10.09-1.12,15.01-2.56s2.87-9.03-2.13-7.71-9.63,3.74-13.84,7.1c-2.35,1.87-.98,6.07,1.77,6.69,6.07,1.36,11.16-.58,16.59-3.23,4.25-2.07,1.15-8.22-3.08-7.31-4.86,1.04-8.95,3.26-12.63,6.57-2.17,1.95-1.12,6.08,1.77,6.69,5.6,1.17,10.55.56,15.76-1.76,3.9-1.74,1.57-7.26-2.02-7.45-7.15-.38-13.87,1.28-20.08,4.84-2.05,1.17-2.84,4.64-.81,6.28,5.65,4.56,14.28,2.52,20.6.41,4.43-1.48,3.39-7.42-1.06-7.86-3.23-.32-6.22,0-9.34.9-4.24,1.22-3.55,8.03,1.06,7.86,5.25-.19,10.46-.6,15.68-1.23s5.11-8.62,0-8-10.43,1.04-15.68,1.23l1.06,7.86c2.47-.71,4.67-.87,7.21-.62l-1.06-7.86c-2.7.9-10.26,3.72-12.82,1.65l-.81,6.28c5.03-2.88,10.27-4.05,16.04-3.74l-2.02-7.45c-3.11,1.39-6.29,1.64-9.6.95l1.77,6.69c2.68-2.4,5.59-3.75,9.1-4.51l-3.08-7.31c-3.3,1.61-6.67,3.26-10.42,2.42l1.77,6.69c3.09-2.47,6.49-4.04,10.31-5.04l-2.13-7.71c-4.26,1.25-8.45,2.02-12.88,2.28l3.86,5.06c.37-2.02,8.75-3.63,10.4-4.01l-2.13-7.71c-4.92,1.76-9.79,2.66-15.03,2.68l2.83,6.83c4.08-3.21,9.02-4.22,14.1-3.95l-1.06-7.86c-6.01,1.67-11.94,2.08-18.13,1.39l2.02,7.45c5.92-2.59,12.15-4.08,18.58-4.54,5.08-.37,5.21-7.96,0-8-2.88-.02-5.77-.04-8.65-.06-1.64-.01-5.67.49-6.65-.26l-.96,7.31c5.4-2.06,10.67-3.95,16.53-3.59v-8c-5.93.77-11.82.88-17.77.34l1.06,7.86c6.58-1.09,13.17-2.18,19.75-3.27,4.52-.75,3.34-7.87-1.06-7.86-3.33,0-6.66.02-10,.03-3.1,0-7.78.9-10.65-.33l-.96,7.31c5.61-1.49,11.17-2.05,16.96-1.76,5.15.25,5.13-7.75,0-8h0Z"/>
  </g>
  <g id="contour">
    <path class="cls-2" d="M346.1,282.74c-.18,7.47-1.79,15.27-7.43,20.62s-13.7,7.92-21.12,8.49c-14.62,1.13-28.6-5.23-37.81-16.52-3.26-3.99-8.89,1.7-5.66,5.66,11.32,13.87,29.55,20.99,47.27,18.43,8.65-1.25,17.93-4.91,23.98-11.43,6.38-6.87,8.55-16.11,8.76-25.25.12-5.15-7.88-5.15-8,0h0Z"/>
    <path class="cls-2" d="M342.95,308.43c5.3,4.78,11.68,7.22,18.56,8.82s14.74,2.9,22.05,1.38c14.75-3.06,22.73-16.73,29.07-29.08,2.35-4.57-4.55-8.62-6.91-4.04-5.03,9.79-11,21.9-22.58,25-6.16,1.65-12.63.55-18.74-.81-5.71-1.27-11.36-2.93-15.79-6.93-3.81-3.44-9.49,2.2-5.66,5.66h0Z"/>
    <path class="cls-2" d="M420.55,258.41c-5.79.53-8,5.66-10.48,10.41-2.72,5.22-4.66,10.98-4.13,16.94,1.1,12.52,13.04,19.02,23.47,23.42,4.74,2,6.81-5.74,2.13-7.71-6.38-2.69-15.68-7.08-17.38-14.47-.79-3.45-.12-7.09,1.09-10.36.45-1.21,4.3-10.14,5.3-10.23,5.08-.47,5.13-8.47,0-8h0Z"/>
    <path class="cls-2" d="M269.05,267.52c2.64,6.01,7.4,15.75,3.21,21.81-5.78,8.35-20.16,8.4-29.13,8-5.15-.23-5.14,7.77,0,8,12.1.54,28.7-.72,36.04-11.96,6.04-9.25.77-20.81-3.21-29.88-2.07-4.7-8.96-.64-6.91,4.04h0Z"/>
    <path class="cls-2" d="M171.24,202.13c-3.75-19.1-6.91-38.31-8.97-57.67-1.01-9.52-1.77-19.06-2.24-28.62-.25-5.04-.87-10.37-.5-15.41.34-4.58,2.9-5.27,7.32-5.25,8.63.06,16.96,4.72,24.76,7.95,8.25,3.41,16.31,7.29,24.16,11.53,15.78,8.52,30.65,18.61,44.41,30.09,3.93,3.28,9.62-2.35,5.66-5.66-24.52-20.46-51.67-35.19-81.05-47.4-9.12-3.79-28.72-9.67-32.79,4.1-.98,3.31-.44,7.01-.35,10.42.13,4.48.32,8.97.57,13.45.51,8.91,1.27,17.81,2.24,26.68,2.13,19.43,5.29,38.73,9.05,57.9.99,5.05,8.7,2.91,7.71-2.13h0Z"/>
    <path class="cls-2" d="M458.52,152.95c24.31-16.58,51.98-28.25,79.02-39.55,6.07-2.54,12.14-5.09,18.25-7.54,3.56-1.43,9.14-3.97,12.63-1.07,2.54,2.11,3,6.21,3.13,9.25.63,15.23-3.19,31.5-7.66,45.96-5.4,17.47-13.52,33.91-23.9,48.96-2.93,4.25,4,8.25,6.91,4.04,10.11-14.66,18.09-30.69,23.66-47.6,5.27-16,9.68-34.37,8.99-51.35-.27-6.56-2.19-13.66-8.39-16.97-7.16-3.83-15.25.15-21.99,2.92-15.18,6.24-30.34,12.55-45.26,19.38-17,7.78-33.94,16.11-49.42,26.66-4.23,2.88-.23,9.82,4.04,6.91h0Z"/>
    <path class="cls-2" d="M495.45,251.75c48.11-15.14,96.71-28.66,145.71-40.56,5-1.21,2.88-8.93-2.13-7.71-49.01,11.9-97.61,25.43-145.71,40.56-4.89,1.54-2.8,9.27,2.13,7.71h0Z"/>
    <path class="cls-2" d="M494.79,281.69c43.96-6.78,88.09-12.36,132.34-16.77,5.08-.51,5.13-8.51,0-8-44.97,4.48-89.81,10.17-134.47,17.05-5.07.78-2.92,8.49,2.13,7.71h0Z"/>
    <path class="cls-2" d="M490.32,305.1c35.02,16.51,70.63,31.72,106.77,45.62l1.06-7.86c-1.64-.11-3.28-.22-4.92-.34-5.14-.35-5.12,7.65,0,8,1.64.11,3.28.22,4.92.34,4.82.33,4.98-6.35,1.06-7.86-35.49-13.65-70.46-28.6-104.85-44.82-4.63-2.18-8.7,4.71-4.04,6.91h0Z"/>
    <path class="cls-2" d="M181,268.01c-37.2-10.03-75.08-17.22-113.35-21.65-5.11-.59-5.06,7.42,0,8,37.56,4.34,74.73,11.52,111.22,21.36,4.98,1.34,7.1-6.37,2.13-7.71h0Z"/>
    <path class="cls-2" d="M179.9,286.24c-33.24,14.3-70.92,12.5-104.22,26.26-4.69,1.94-2.64,9.68,2.13,7.71,16.68-6.89,35.21-9.5,52.86-12.7s36.21-7.04,53.27-14.38c4.72-2.03.65-8.92-4.04-6.91h0Z"/>
    <path class="cls-2" d="M185.92,309.54c-33.23,18.75-64.47,40.82-93.3,65.81-3.9,3.38,1.78,9.02,5.66,5.66,28.32-24.55,59.03-46.14,91.68-64.56,4.48-2.53.46-9.44-4.04-6.91h0Z"/>
    <path class="cls-2" d="M514.5,703.5c22.24-2.43,43.39-6.75,60.69-21.91,9.56-8.38,16.64-18.9,20.91-30.86,4.71-13.19,4.58-26.92,3.28-40.68s-3.71-26.51-8.51-39.34c-4.72-12.62-10.79-24.68-17.05-36.59-13.49-25.71-28.01-50.75-43.61-75.24-8.81-13.85-17.73-27.66-27-41.21-8.98-13.13-18.71-25.7-27.07-39.26-2.7-4.38-9.62-.36-6.91,4.04,7.04,11.43,15.01,22.18,22.77,33.12,7.65,10.78,14.83,21.91,22.04,32.99,14.92,22.92,29.37,46.16,42.5,70.15,12.36,22.57,25.84,45.84,31.83,71.08,5.94,25.02,6.97,53.94-8.89,75.54-15.64,21.32-40.11,27.45-64.99,30.18-5.06.55-5.12,8.56,0,8h0Z"/>
    <path class="cls-2" d="M350.5,714.5c21.33-.08,42.67-.25,64,0,5.15.06,5.15-7.94,0-8-21.33-.25-42.67-.08-64,0-5.15.02-5.16,8.02,0,8h0Z"/>
    <path class="cls-2" d="M214.11,380.12c-5.52,12.56-10.29,25.39-15.01,38.27s-10.17,25.19-14.12,38.19-6.95,26.59-10.36,39.9-7.04,27.67-10.16,41.6c-6.12,27.4-10.63,55.09-12.14,83.14-.69,12.79-.65,25.51,4.06,37.62,3.92,10.08,9.37,19.42,17.49,26.7,20.5,18.4,47.11,22.13,73.28,25.68l1.06-7.86h-.07c-5.26.13-5.01,7.43,0,8,.45.05.9.1,1.35.13,5.12.48,5.09-7.52,0-8-.45-.04-.9-.08-1.35-.13v8h.07c4.29-.11,5.7-7.23,1.06-7.86-22.23-3.02-44.4-5.59-63.41-18.68-9.16-6.31-15.84-14.61-20.36-24.74-5.34-11.96-5.93-24.17-5.28-37.07,2.65-52.73,16.17-104.54,29.9-155.31,3.73-13.81,8.96-26.95,14.09-40.28,5.56-14.45,10.57-29.08,16.8-43.27,2.05-4.67-4.84-8.75-6.91-4.04h0Z"/>
    <path class="cls-2" d="M169.5,672.5c-14.15-1.14-25.51,3.79-34.26,14.97-4.82,6.15-9.48,13.07-10.73,20.93-1.38,8.66,1.93,16.93,7.01,23.82,19.12,25.91,57.04,32.58,83.54,14.2,13.72-9.52,22.66-24.12,23.44-40.92.24-5.15-7.76-5.13-8,0-1.2,25.8-26.17,44.4-51.01,43.58-12.89-.43-25.7-5.72-35.15-14.48-5.18-4.8-10.1-10.89-11.7-17.91-1.73-7.64,1.91-14.38,6.09-20.5,3.36-4.92,7.29-9.76,12.55-12.74,5.59-3.17,11.96-3.45,18.23-2.94,5.13.41,5.1-7.59,0-8h0Z"/>
    <path class="cls-2" d="M525.99,698.03c1.48,26.08,27.85,44.82,53.02,41.53,23.91-3.13,45.67-25.68,34.46-50.28-5.44-11.95-17.38-22.01-30.97-21.78-5.14.09-5.16,8.09,0,8,12.37-.21,22.82,11.01,25.61,22.44,3.01,12.31-5.59,23.49-15.96,29.13-22.68,12.35-56.6-1.39-58.16-29.04-.29-5.12-8.29-5.15-8,0h0Z"/>
    <path class="cls-2" d="M560.44,521.36c45.63,8.92,94.56-29.35,95.78-76.15.8-30.67-15.8-57.99-19.46-87.92-1.7-13.89-.74-28.63,6.75-40.82s19.38-19.17,31.77-24.3c22.17-9.18,49.66-15.64,73.09-7.59,7.42,2.55,30.26,15.3,19.91,25.07-4.32,4.08-10.88,5.09-16.55,5.52-8.29.62-16.63.3-24.92.96-12.63,1-25.89,4.54-34.73,14.24-9.34,10.25-9.14,23.64-4.25,35.97,5.18,13.06,11.9,25.17,16.04,38.68,3.87,12.65,6.36,25.76,6.69,39.01.69,27.64-9.07,53-30.81,70.65-22.07,17.93-50.08,30.51-78.37,33.83-7.26.85-14.57,1.11-21.88.99-5.15-.08-5.15,7.92,0,8,29.17.46,57-6.86,82.33-21.29,25.11-14.3,46.25-33.52,53.56-62.39,6.6-26.03,2.45-54.06-6.5-79.02-2.27-6.34-4.89-12.56-7.8-18.63-3.57-7.46-7.95-15.19-8.73-23.58-1.41-15.15,12.07-24.32,25.34-27.19,15.31-3.31,32.16.86,46.99-4.65,10.83-4.03,18.39-14.36,11.26-25.41-13.75-21.29-43.02-24.2-65.81-21.02-24.76,3.45-54.29,12.78-70.18,33.29-18.28,23.59-12.04,55.35-3.85,81.56,8.76,28.02,19.29,57.55,3.93,85.26-11.83,21.34-34.67,37.61-59.17,40.05-6.12.61-12.27.36-18.31-.82-5.03-.98-7.18,6.73-2.13,7.71h0Z"/>
    <path class="cls-2" d="M265.35,505.52c1.08,56.35,6.04,112.59,5.15,168.98l2.94-3.86c-10.67,3.98-18.51,13.68-22.94,23.91-4.89,11.33-3.57,21.05,1.49,32.02,2.49,5.4,6.03,10.82,11.34,13.8,5.87,3.29,12.99,4.79,19.57,5.8,12.97,1.99,28.02,3.43,40.95.54,11.39-2.54,22.43-9.63,27.27-20.55,5.23-11.81,1.77-24.72-5.92-34.55-4.09-5.22-9.21-9.61-14.87-13.06-5-3.05-12.08-4.33-13.27-10.92-1.12-6.18-.46-12.71-.35-18.94.16-8.94.22-17.88.22-26.83-.02-38.35-1.25-76.68-.85-115.03.05-5.15-7.95-5.15-8,0-.31,30.23.36,60.45.69,90.68.17,15.12.23,30.24.03,45.35-.08,6.05-.44,12.13-.29,18.17.1,4.09.12,9.22,2.17,12.91,2.81,5.04,6.66,6.86,11.6,9.3,5.65,2.8,10.8,6.61,15.01,11.32,8.11,9.07,11.82,22.21,4.02,32.73-7.06,9.52-19.12,12.6-30.38,12.63-12.58.03-25.57-.27-37.66-4.11-7.29-2.31-11.23-6.36-14.37-13.27-2.33-5.12-4.43-10.46-3.65-16.16,1.5-10.92,9.68-24.04,20.32-28.01,1.7-.63,2.91-1.98,2.94-3.86.9-56.39-4.06-112.63-5.15-168.98-.1-5.14-8.1-5.16-8,0h0Z"/>
    <path class="cls-2" d="M425.5,514.5c2.55,43.72,6.63,87.32,11.37,130.84,1.08,9.88,3.88,21.02,1.27,30.83-2.39,8.99-9.37,13.3-16.26,18.69-5.96,4.66-10.81,10.33-11.74,18.1-.99,8.21,2.16,16.33,7.5,22.49,12.12,13.99,33.76,19.53,51.56,20.01,16.43.44,37.77-3.08,48.92-16.48s6.96-33.94-6.49-44.54c-6.78-5.34-14.19-7.1-22.37-9.06-8.66-2.08-9.56-8.99-9.84-16.85-1.85-51.33,1.95-102.71-.93-154.03-.29-5.12-8.29-5.15-8,0,2.38,42.43.23,84.91.43,127.37.05,10.1.04,20.26.66,30.35.41,6.7,1.92,12.75,7.39,17.15,5.55,4.46,13.09,4.05,19.48,6.57,8.19,3.24,15.17,9.75,17.5,18.41,5.52,20.54-15.96,29.71-32.38,32.25-17.99,2.79-38.8-.51-53.92-11.09-7.19-5.03-13.42-13.73-11.37-22.96,1.7-7.67,9.19-11.83,14.93-16.28,6.11-4.75,10.64-10.38,12.66-17.98,2.33-8.78.69-17.67-.28-26.52-5.03-45.66-9.41-91.4-12.08-137.27-.3-5.12-8.3-5.15-8,0h0Z"/>
    <path class="cls-2" d="M193.49,178.15c-2.54-7.63-4.31-15.46-4.94-23.49-.31-3.99-.59-8.19-.1-12.18.55-4.53,2.38-6.62,7.03-6.28,13.85,1.01,27.86,9.15,37.81,18.38,3.77,3.5,9.44-2.15,5.66-5.66-6.87-6.37-14.64-11.56-23.27-15.23-7.3-3.11-17.49-7.13-25.57-5.12-8.93,2.22-9.92,11.83-9.86,19.58.09,10.91,2.08,21.79,5.53,32.12,1.62,4.86,9.35,2.78,7.71-2.13h0Z"/>
    <path class="cls-2" d="M488.82,166.26c6.75-3.55,13.65-6.82,20.74-9.64,6.47-2.57,14.09-6.3,21.1-6.85,5.09-.4,3.71,1.1,2.38,5.16-1.13,3.46-2.46,6.84-4.02,10.13-3.02,6.38-6.76,12.4-11.14,17.93-3.17,3.99,2.46,9.69,5.66,5.66,5.77-7.27,10.58-15.05,14.2-23.61,2.57-6.07,8.72-17.24.87-21.74s-17.94.7-25.17,3.33c-9.84,3.58-19.41,7.86-28.67,12.73-4.56,2.4-.52,9.31,4.04,6.91h0Z"/>
    <path class="cls-2" d="M315.98,202.1c2.2,8.97,3.78,17.87,1.09,26.98-1.46,4.95,6.26,7.06,7.71,2.13,3.1-10.5,1.45-20.88-1.09-31.23-1.23-5-8.94-2.88-7.71,2.13h0Z"/>
    <path class="cls-2" d="M338.5,261.5c2.28-.07,25-1.73,25.34.07l.4-3.08c-1.05,2.41-3.04,5.33-4.2,6.95-2.27,3.16-3.83,8.7-7.87,10.13s-9.44-4.51-11.11-7.82c-1.8-3.57.03-5.95,1.3-9.18,1.88-4.8-5.85-6.87-7.71-2.13-1.43,3.65-3.03,5.61-2.27,9.78.99,5.42,4.19,9.31,8.16,13.02,7.05,6.58,15.53,5.52,21.39-1.93,2.48-3.16,4.75-6.67,6.62-10.15s4.71-6.74,1.79-10.52-8.07-3.63-12.22-3.63c-6.53,0-13.08.29-19.61.5-5.14.16-5.16,8.16,0,8h0Z"/>
    <polygon class="cls-1" points="337.76 257.73 365.45 257.73 366.58 263.24 361.95 272.43 354.46 279.78 344.38 277.98 337.2 266.89 337.76 257.73"/>
    <path class="cls-2" d="M387.17,201.06c2.2,8.97,3.78,17.87,1.09,26.98-1.46,4.95,6.26,7.06,7.71,2.13,3.1-10.5,1.45-20.88-1.09-31.23-1.23-5-8.94-2.88-7.71,2.13h0Z"/>
    <path class="cls-2" d="M190.08,182.82c10.94.87,21.99-1.8,31.36-7.53,7.62-4.66,19.73-14.22,17.82-24.28-.96-5.05-8.67-2.91-7.71,2.13.61,3.2-5.13,8.07-7.21,10.01-3.04,2.84-6.49,5.18-10.2,7.07-7.47,3.82-15.73,5.26-24.06,4.6-5.13-.41-5.11,7.6,0,8h0Z"/>
    <path class="cls-2" d="M483.24,160.94c-3.73,8.73,3,19.85,10.11,25.01,7.48,5.42,21.74,8.99,29.5,2.9,4.05-3.18-1.65-8.8-5.66-5.66-3.76,2.95-15.01-1-18.56-3.29-3.25-2.1-10.4-10.46-8.5-14.92,2-4.68-4.89-8.76-6.91-4.04h0Z"/>
    <path class="cls-2" d="M264.97,145.73c62.64-10.85,127.25-7.97,188.72,8.23,4.98,1.31,7.11-6.4,2.13-7.71-62.91-16.58-128.88-19.33-192.97-8.23-5.06.88-2.92,8.59,2.13,7.71h0Z"/>
    <path class="cls-2" d="M217.09,384.95c63.41,24.08,133.5,29.1,199.82,15.05,18.98-4.02,37.58-9.68,55.62-16.82,4.73-1.87,2.67-9.61-2.13-7.71-62.27,24.64-131.41,30.79-197.06,17.46-18.44-3.74-36.53-9.01-54.12-15.69-4.82-1.83-6.9,5.9-2.13,7.71h0Z"/>
    <path class="cls-2" d="M472.56,383.36c53.83-15.45,92.18-71.07,88.87-126.73-.99-16.71-5.93-32.77-14.48-47.15-2.63-4.42-9.55-.4-6.91,4.04,35.93,60.43-4.22,143.36-69.61,162.12-4.94,1.42-2.84,9.14,2.13,7.71h0Z"/>
    <path class="cls-2" d="M164.05,202.48c-17.04,23.43-24.24,53.98-22.03,82.68s14.68,54.79,35.1,74.56c11.59,11.21,25.3,19.82,40.32,25.64,4.8,1.86,6.88-5.87,2.13-7.71-24.5-9.5-45.16-27.88-57.54-51.04s-15.25-52.53-9.29-78.95c3.34-14.8,9.28-28.84,18.22-41.14,3.03-4.17-3.91-8.17-6.91-4.04h0Z"/>
  </g>
</svg>