<?xml version="1.0" encoding="UTF-8"?>
<svg xmlns="http://www.w3.org/2000/svg" viewBox="0 0 657.16 644.33">
  <defs>
    <style>
      .cls-1, .cls-2 {
        stroke-width: 0px;
      }

      .cls-3 {
        fill: none;
      }

      .cls-3, .cls-4 {
        stroke-width: 8px;
      }

      .cls-3, .cls-4, .cls-5 {
        stroke: #000;
        stroke-miterlimit: 10;
      }

      .cls-4, .cls-2, .cls-5 {
        fill: #fff;
      }
    </style>
  </defs>
  <g id="feuille">
    <rect class="cls-4" x="52.24" y="34.83" width="421.67" height="574.67" rx="35" ry="35" transform="translate(72.04 -47.3) rotate(11.89)"/>
  </g>
  <g id="cntenu_feuille" data-name="cntenu feuille">
    <rect class="cls-3" x="136.24" y="57.49" width="213.3" height="44.3" transform="translate(21.63 -48.35) rotate(11.89)"/>
    <rect class="cls-3" x="107.83" y="227.53" width="339.63" height="50.86" transform="translate(58.09 -51.79) rotate(11.89)"/>
    <rect class="cls-3" x="87.29" y="322.19" width="339.63" height="56.61" transform="translate(77.75 -45.46) rotate(11.89)"/>
    <rect class="cls-3" x="141.42" y="535.28" width="140.28" height="27.07" transform="translate(117.65 -31.82) rotate(11.89)"/>
    <line class="cls-3" x1="87.46" y1="411.6" x2="379.67" y2="473.14"/>
    <line class="cls-3" x1="124.17" y1="456.22" x2="315.06" y2="497.26"/>
    <line class="cls-3" x1="127.41" y1="138.32" x2="316.69" y2="179.02"/>
  </g>
  <g id="stylo">
    <polygon class="cls-5" points="606.71 254.9 623.46 245.43 633.86 249.81 648.71 268.93 653.05 278.72 647.94 286.62 637.14 291.57 629.3 273.85 616.45 262.29 606.71 254.9"/>
    <g>
      <path class="cls-2" d="M415.56,400.17s36.43,4.5,36.06,47.03c-9.49,6.43-59.36,6.85-59.36,6.85,0,0,18.2-51.7,23.3-53.88Z"/>
      <g>
        <path class="cls-2" d="M416.52,399.2s36.96,13.03,34.98,46.91c6.35-1.26,47.89-33.75,47.89-33.75l82.35-63.78,56.54-46.97s-4.82-42.15-42.84-48.91c-22.88,14.24-178.92,146.5-178.92,146.5Z"/>
        <line class="cls-3" x1="415" y1="399.47" x2="593.13" y2="252.29"/>
        <line class="cls-3" x1="637.95" y1="305.05" x2="451.5" y2="449.45"/>
        <path class="cls-1" d="M394.7,456.73c1.2-4.66,3.6-9.36,5.41-13.83,2.04-5.04,4.19-10.04,6.36-15.02,3.95-9.05,8.33-18.03,11.6-27.36,1.71-4.87-6.02-6.96-7.71-2.13-3.44,9.81-8.11,19.24-12.25,28.78-3.83,8.83-8.74,18.12-11.12,27.42-1.28,4.99,6.43,7.12,7.71,2.13h0Z"/>
        <path class="cls-1" d="M391.2,459.8c10.16.8,19.77.96,29.88-.47s21.01-3.91,31.49-6.02c5.04-1.01,2.91-8.73-2.13-7.71-9.86,1.98-19.67,4.26-29.62,5.74-10.03,1.5-19.56,1.26-29.62.46-5.13-.4-5.11,7.6,0,8h0Z"/>
        <path class="cls-1" d="M414.85,403.2c5.04.44,9.61,3.37,13.86,5.92,4.93,2.96,8.27,6.35,11.02,11.43,4.86,8.98,8.36,18.57,7.77,28.9-.29,5.14,7.71,5.13,8,0,.72-12.59-3.94-25.49-10.64-36.02-5.98-9.4-18.92-17.27-30.01-18.23-5.13-.45-5.1,7.56,0,8h0Z"/>
        <path class="cls-1" d="M399.23,442.63c4.34,1.42,5.82,5.66,4.33,9.76-1.75,4.85,5.97,6.94,7.71,2.13,3.01-8.33-1.69-16.92-9.92-19.61-4.9-1.6-7.01,6.12-2.13,7.71h0Z"/>
        <path class="cls-1" d="M607.48,257.25c4.61-2.78,11.95-9.13,17.64-7.99s10.73,7.82,14.35,11.98,9.95,10.04,9.66,16.33-9.25,9.24-13.74,11.78-.46,9.44,4.04,6.91c6.86-3.87,15.7-7.46,17.43-16.07s-4.32-15.85-9.49-21.98-11.32-13.99-19.42-16.45c-8.91-2.7-17.34,4.26-24.5,8.58-4.4,2.65-.39,9.57,4.04,6.91h0Z"/>
        <path class="cls-1" d="M591.94,256.05c5.62,1.17,11.43,2.29,16.47,5.16,4.6,2.61,8.67,6.43,12.33,10.22,7.99,8.28,15.68,20.76,13.02,32.76-1.11,5.02,6.6,7.16,7.71,2.13,3.06-13.86-3.9-27.95-12.88-38.15-4.27-4.86-9.28-9.54-14.77-13.01-5.99-3.79-12.92-5.38-19.78-6.81-5.02-1.04-7.17,6.67-2.13,7.71h0Z"/>
      </g>
    </g>
  </g>
</svg>