<?xml version="1.0" encoding="UTF-8"?>
<svg id="Calque_2" data-name="Calque 2" xmlns="http://www.w3.org/2000/svg" viewBox="0 0 820 820">
  <defs>
    <style>
      .cls-1 {
        fill: #d6e9fc;
        stroke: #bbcdff;
        stroke-miterlimit: 10;
        stroke-width: 6px;
      }
    </style>
  </defs>
  <path class="cls-1" d="M393.5,171.5l-4-97-41-30s-8-10-4-17,17-2,17-2l40,29,36.09-30.73s10.91-11.27,17.91-5.27,0,16.03,0,16.03l-40,35.97,2,98,37-25s10-4,13,1,0,11.44,0,11.44l-48,36.56v86l35-17s11.67-5.06,14.33-.03-2.33,12.03-2.33,12.03l-46,30-1,83,65-39v-64.85s2-20.15,11-20.15,11,14,11,14v58.38l73-42.38,8-59s3-15,12-14,8,11,8,11l-2,50,83-53,6-48s4-13,14-12,8,17,8,17l-4,40,44,19s12,1,12,12-19,8-19,8l-47-16-82,51,42,20s7,6,4,12-12,4-12,4l-55-24-73,44,35,24s8,8,4,12-9.56,2.62-9.56,2.62l-54.44-25.62-71,40,71,38,54.44-33.68s14.56-6.32,22.56,1.68-7,17-7,17l-49,28,73,42,53-21s14-6,19,1-4,14-4,14l-43,22,86,46,43-18s16-2.88,19,3.56-9,15.44-9,15.44l-40,19,9,53s4,11-7,11-15-11-15-11l-10-52-85-44,3,48s0,8-8,9-9-10-9-10l-7-60-76-43-2,46s-2,7-8,7-9-9-9-9l-4-58-71-41,3,79,56,32s14,8,11,21-24-1-24-1l-45-26,2,84,47,39s9,7,6,16-25-3-25-3l-31-24,5,100,39,29s10,11,4,18-19.26,0-19.26,0l-35.74-28-38,34s-8,8-16,2,8-26,8-26l34-26-2-101-41,29s-7,5-11,0,1-14,1-14l49-36-1-88-37,21s-6,6-12-1,7-16,7-16l43-28v-85l-67,44v66.79s1,14.21-13,17.21-9-25-9-25l-.87-49.03-73.13,46.03-9,61s-1,8-11,10-8-18-8-18l2-44-83,55-7,53s-3,8-12,7-9-17-9-17l6-45-54-17s-5-1-5-10,18-8,18-8l47,16,85-50-43-20s-6-2-3-12,22,0,22,0l45,20,74-45-38-26s-8-4-3-10,17,0,17,0l46,23,75.97-42.5-72.97-34.5-52,31s-14,9-26,1,20-24,20-24l38-24-76-40-44,20s-22,9-31-1,52-34,52-34l-88-46-37,16s-22,7.71-26-3.15,27-21.85,27-21.85l26-12-10-48s-3-14,5-16,17,17,17,17l9,44,84,47-3-47s-1-10,8-10,11,10,11,10l7,57,75,44,2-43s0-9,7-9,9,10,9,10l4,53,72,44-3-80-60-34s-12-10-7-20,29,8,29,8l40,21-1-84-47-35s-12-9-7-20,32,12,32,12l23,13Z"/>
</svg>