<svg width="501" height="501" viewBox="0 0 501 501" fill="none" xmlns="http://www.w3.org/2000/svg">
<path d="M250.854 0.17395C112.639 0.17395 0.956543 112.062 0.956543 250.071C0.956543 355.995 66.7731 446.492 159.739 482.897C157.476 463.152 155.625 432.712 160.562 411.116C165.087 391.577 189.768 286.887 189.768 286.887C189.768 286.887 182.363 271.873 182.363 249.865C182.363 215.106 202.52 189.191 227.612 189.191C249.003 189.191 259.286 205.234 259.286 224.362C259.286 245.752 245.712 277.837 238.513 307.661C232.548 332.547 251.059 352.909 275.535 352.909C319.961 352.909 354.103 306.015 354.103 238.553C354.103 178.701 311.117 136.949 249.62 136.949C178.456 136.949 136.703 190.219 136.703 245.341C136.703 266.731 144.93 289.767 155.214 302.313C157.271 304.781 157.476 307.044 156.859 309.512C155.008 317.327 150.689 334.399 149.866 337.895C148.838 342.42 146.164 343.448 141.434 341.186C110.582 326.377 91.2486 280.717 91.2486 244.106C91.2486 165.332 148.427 92.9341 256.407 92.9341C342.997 92.9341 410.459 154.637 410.459 237.319C410.459 323.498 356.16 392.811 280.882 392.811C255.584 392.811 231.726 379.647 223.704 364.016C223.704 364.016 211.158 411.733 208.073 423.457C202.52 445.258 187.3 472.408 177.016 489.067C200.463 496.266 225.144 500.174 251.059 500.174C389.068 500.174 500.957 388.286 500.957 250.277C500.751 112.062 388.863 0.17395 250.854 0.17395Z" fill="#9B0000"/>
</svg>
