<?xml version="1.0" encoding="UTF-8"?>
<svg id="Calque_2" data-name="Calque 2" xmlns="http://www.w3.org/2000/svg" viewBox="0 0 773.92 717.88">
  <defs>
    <style>
      .cls-1, .cls-2, .cls-3 {
        stroke-width: 0px;
      }

      .cls-2 {
        fill: #528838;
      }

      .cls-3 {
        fill: #d4145a;
      }
    </style>
  </defs>
  <path class="cls-3" d="M292.28,3.72s-44.23,3.01-79.12,49.8c-29.97,8.09-54.84-1.04-88.94,54.77-8.8,13.12-18.89,30.24-29.68,32.9,8.24,3.99,16.35,17.54,16.35,17.54l-39.39,3.06s-32.53,13.59-33,60.2c-1.49,18.27-5.62,42.78-31.78,54.35,8.07,9.53,44.82,43.7,47.79,53.87,2.98,10.17,21.87,29.23,21.87,29.23,0,0-29.78,38.86-5.42,81.65,18.36,11.98,45.19,23.83,50.83,32.18,5.63,8.34,33.47,31.51,40.84,56.04,10.55-4.1,26.49-18.48,74.94-8,47.26,5.55,58.56,6.62,77.05,2.4,18.49-4.22,45.64-36.9,45.64-36.9l43.8,8.19s34.79-4.88,50.49-19.24,86.58-39.66,86.58-39.66l24,.48-6.36-16.08s-6.03-28.08,34.66-58.09c15.38-11.54,37.33-66.83.28-103.87,1.88-23.88,1.05-15.84,1.05-15.84l-30.42-85.99s-17.33-37.88-29.85-48.83c-12.54-11.17-60.35-29-60.35-29l-3.28-30.78-40.13,8.79-48.8-1.43s-8.22-38.04-64.07-48.22c-55.84-10.18-25.58-3.52-25.58-3.52Z"/>
  <path class="cls-2" d="M97.42,462.04c.48-.02-47.74,17.55-42.22,136.51-.07,17.62,2.35,90.85-4.26,94.08s119.74-48.38,119.74-48.38c0,0,48.63-17.37,72.41-71.79,5.53-12.65,2.84-29.84,5.72-46.39-19.51-1.39-53.85-8.58-53.85-8.58l-33.44,11.74-22.06-32.82-42.05-34.39Z"/>
  <path class="cls-2" d="M316.56,524.11s50.74,70.35,68.75,88.91c18.01,18.56,73.28,92.14,73.28,92.14l7.9.52-4.16-47.3s26.97-104.24,1.76-142.56c-25.21-38.31-15.97-35.13-15.97-35.13l-34.67,12.57-26.53-1.44-26.68-4.99-16.09,15.24-27.6,22.04Z"/>
  <path class="cls-2" d="M596.13,262.63l24.52-7.13,36.29,9.82,34.41,22.45,29.37,18.14,41.47,7.74-15.57,12.55s-61.21,54.07-142.21,30.04c8.72-14.7,10.39-51.1,10.39-51.1l-18.68-42.51Z"/>
  <path class="cls-1" d="M283.58,115.74c-8.16-1.46-16.57,2.24-24.04,5.27-7.34,2.98-10.24,9.34-11.65,16.74-1.67,8.79-.14,14.86,6.97,20.58,5.93,4.77,12.59,9.69,20.38,10.58s14.93-2.75,20.4-7.95,12.01-13.45,13.85-21.11c3.5-14.62-15.26-20.77-25.91-24.11-4.92-1.55-7.03,6.17-2.13,7.71,5.95,1.87,21.62,5.94,20.32,14.27-.78,4.99-5.69,10.68-8.83,14.4-3.75,4.44-8.72,8.66-14.81,8.92-5.47.24-10.36-3.07-14.61-6.14-2.24-1.62-4.68-3.28-6.5-5.37-2.55-2.93-2.07-6.11-1.42-9.66,1.17-6.39,2.92-10.04,9.34-12.3,5.04-1.78,11.03-5.11,16.51-4.13,5.03.9,7.19-6.81,2.13-7.71h0Z"/>
  <path class="cls-1" d="M256.37,124.82c-9.72-3.14-26.61-2.95-31.79,7.91-1.32,2.77-1.28,6.16-1.86,9.12-.48,2.44-1.09,4.55-.44,7.03,1.46,5.58,7.99,9.83,11.95,13.55,8.54,8.02,18.24,20.7,30.74,22.01,11.47,1.21,18.7-8.08,17.4-18.86-.61-5.05-8.62-5.11-8,0,.37,3.03.61,6.31-1.65,8.7-3.08,3.26-7.99,2.56-11.65.81-7.52-3.6-13.84-11.43-19.83-17.05-3.09-2.9-6.31-5.71-9.28-8.73s-1.32-6.94-.66-10.69c1.63-9.34,16.29-8.23,22.95-6.08,4.91,1.59,7.01-6.13,2.13-7.71h0Z"/>
  <path class="cls-1" d="M303.14,128.67c10.78-1.78,22.4,7.03,22.92,18.1.34,7.16-4.92,10.39-10.49,13.43-4.55,2.48-8.89,5.03-12.66,8.65-7.69,7.39-12.46,17.17-18.34,25.92-1.63,2.42-9.32,14.6-13.41,10.35-1.81-1.88-.2-9.44-.04-11.91.23-3.73.47-7.46.7-11.2.32-5.14-7.68-5.12-8,0s-.62,9.95-.94,14.93c-.25,3.95-.96,8.43,1.2,12.03,3.82,6.34,12.29,5.51,17.47,1.61,12.47-9.41,16.44-26.69,28.07-37.05,5.7-5.08,13.47-7.1,18.93-12.47s6.62-13.04,4.62-20.14c-3.9-13.79-18.3-22.25-32.16-19.96-5.07.84-2.92,8.55,2.13,7.71h0Z"/>
  <path class="cls-1" d="M230.31,159.13c3.04,6.33,6.57,12.59,8.27,19.45.81,3.25,1.13,6.51.64,9.82s-1.75,6.42-1.46,9.82c1.14,13.28,16.26,15.02,26.63,14.32,5.11-.34,5.15-8.35,0-8-5.53.37-13.03,1.23-17.07-3.5-3.51-4.1.22-11.25.15-16.23-.16-10.69-5.73-20.35-10.24-29.73-2.23-4.64-9.13-.59-6.91,4.04h0Z"/>
  <path class="cls-1" d="M277.87,116.87c.61-17.87-19.29-24.82-33.32-28.89-16.8-4.88-31.75.79-43.96,12.73-11.42,11.16-22.32,26.73-25.09,42.72-2.94,17.01,5.12,32.37,16.43,44.55,12.26,13.2,30.31,25.33,49.06,19.82,4.93-1.45,2.83-9.17-2.13-7.71-17.42,5.11-34.14-8.88-44.51-21.43-5.72-6.93-10.53-15.29-11.42-24.39s2.19-17.73,6.49-25.49c7.64-13.8,19.65-29.89,35.74-33.99,9.41-2.4,18.73,1.15,27.5,4.39,7.99,2.96,17.55,7.84,17.22,17.71-.18,5.15,7.82,5.14,8,0h0Z"/>
  <path class="cls-1" d="M286.73,204.02c8.69,8.81,16.34,18.74,28.42,22.74,8.92,2.95,19.84,3.35,22.83-7.63s2.94-24.51-1.09-35.09c-3.63-9.52-10.34-19.95-21.17-21.08-5.12-.53-5.08,7.47,0,8,7.36.77,12.6,11.9,14.47,18.17,2.43,8.18,2.27,18.04.4,26.35-1.1,4.9-3.64,5.91-8.46,4.94-3.77-.75-7.95-2.04-11.18-4.09-7-4.42-12.79-12.13-18.56-17.98-3.62-3.67-9.28,1.99-5.66,5.66h0Z"/>
  <path class="cls-1" d="M256.4,96.09c11.98-9.77,27.54-16.84,43.29-15.57s31.44,13.67,41.66,25.44c23.93,27.57,13.32,66.45-4.43,94.03-2.79,4.34,4.13,8.36,6.91,4.04,15.97-24.82,26.03-56.2,14.61-84.97-5.42-13.66-15.29-23.96-26.88-32.69s-23.93-14.84-38.76-13.87c-15.65,1.01-30.06,8.15-42.06,17.93-3.99,3.25,1.7,8.88,5.66,5.66h0Z"/>
  <path class="cls-1" d="M181.99,165.35c-24.72,6.65-32.87,37.03-17.77,56.58,8.03,10.4,20.02,15.68,33,16.16,8.37.31,16.72-1.08,24.99-2.19s17.16-2.3,25.74-3.45c19.47-2.61,38.94-5.22,58.41-7.84,5.03-.67,5.09-8.68,0-8-18.48,2.48-36.96,4.96-55.44,7.44-9.24,1.24-18.48,2.48-27.72,3.72-8.59,1.15-17.28,2.66-25.98,2.33-14.97-.57-29.26-9.97-32.48-25.26-2.89-13.7,5.88-28.14,19.38-31.77,4.97-1.34,2.86-9.05-2.13-7.71h0Z"/>
  <path class="cls-1" d="M193.16,238.29c15.74,6.12,30.62,14.67,43.69,25.38,13.99,11.47,26.52,24.89,39.48,37.48,3.69,3.59,9.36-2.06,5.66-5.66-13.76-13.37-27.04-27.72-42.14-39.61-13.54-10.66-28.51-19.06-44.56-25.31-4.8-1.87-6.88,5.86-2.13,7.71h0Z"/>
  <path class="cls-1" d="M354.49,136.75c.14,6.05,3.24,10.73,6.29,15.73,3.52,5.77,5.93,12.16,7.8,18.65,3.97,13.81,4.82,28.37,2.52,42.55-.82,5.04,6.89,7.2,7.71,2.13,2.26-13.89,1.99-27.93-1.18-41.66-1.54-6.67-3.79-13.13-6.6-19.37-2.58-5.73-8.39-11.54-8.54-18.01-.12-5.14-8.12-5.16-8,0h0Z"/>
  <path class="cls-1" d="M327.16,225.99c-.64,5.74,5.65,11.25,8.18,16.12,3.16,6.12,5.05,12.72,6.06,19.51.75,5.07,8.46,2.92,7.71-2.13-.87-5.85-2.43-11.48-4.76-16.91-1.09-2.54-2.3-5.03-3.7-7.42-1.25-2.13-5.75-6.75-5.49-9.18.57-5.11-7.44-5.07-8,0h0Z"/>
  <path class="cls-1" d="M312.02,301.54c10.43-9.33,20.16-19.41,29.71-29.63,8.92-9.55,19.38-19.07,25.88-30.53,3.42-6.04,5.31-12.79,8.52-18.93,2.82-5.39,6.73-10.08,11.5-13.86,9.64-7.63,21.96-11.39,34.1-12.19,5.11-.34,5.15-8.34,0-8-12.26.81-24.48,4.12-34.82,10.92-11.23,7.38-17.23,17.4-22.27,29.55-5.74,13.86-16.09,23.96-26.15,34.79s-20.82,22.1-32.13,32.22c-3.85,3.44,1.83,9.08,5.66,5.66h0Z"/>
  <path class="cls-1" d="M251.04,312.49c33.14-23.81,77.73,6.26,111.65-16.41,13.74-9.18,20.86-24.56,32.33-35.99,6.99-6.96,14.99-10,24.56-11.9s18.53-3.76,26.02-10.07c7.34-6.19,10.98-14.61,12.61-23.87,1.46-8.28,1.69-19.05,8.85-24.69,4.04-3.18-1.65-8.81-5.66-5.66-13.05,10.27-7.38,30.05-16.11,42.76-5.99,8.72-15.47,11.36-25.32,13.32-9.17,1.82-17.77,4.01-25.3,9.81-12.94,9.97-19.79,25.53-31.97,36.25-15.08,13.27-36.56,11.88-55.22,10.2-20.58-1.86-42.78-3.36-60.47,9.35-4.14,2.98-.15,9.92,4.04,6.91h0Z"/>
  <path class="cls-1" d="M354.7,115.81c22.55-11.27,46.79,2.96,62.25,19.34,16.14,17.1,27.54,38.16,45.18,53.93,3.83,3.42,9.51-2.22,5.66-5.66-19.71-17.62-31.7-41.95-51.13-59.82-17.64-16.21-43.15-26.12-66-14.7-4.61,2.3-.56,9.2,4.04,6.91h0Z"/>
  <path class="cls-1" d="M317.14,77.19c3.23-12.83,18.79-17.9,30.47-19.21,13.31-1.49,26.77.63,39.98,2.17,28.58,3.33,56.99,1.07,84.33-8.18l-5.06-3.86c4.64,35.15.6,76.79-31.23,98.61-4.22,2.89-.22,9.83,4.04,6.91,34.27-23.48,40.25-67.18,35.19-105.52-.32-2.39-2.32-4.78-5.06-3.86-15.2,5.14-30.96,8.37-46.99,9.28s-30.32-.89-45.51-2.61c-13.66-1.55-27.85-2.63-41.25,1.19-11.61,3.32-23.48,10.53-26.61,22.95-1.26,4.99,6.46,7.12,7.71,2.13h0Z"/>
  <path class="cls-1" d="M244.68,308.92c8.15,20.95,26.55,35.24,47.52,42.19,26.38,8.74,55.09,4.83,81.78-.24,11.84-2.25,24.16-4.88,33.55-12.96,4.82-4.15,8.32-9.54,12.44-14.33,4.52-5.25,9.6-9.96,14.86-14.46,18.54-15.85,40.45-30.37,48.81-54.53,7.16-20.68-1.74-49.32-25.7-53.55-5.03-.89-7.2,6.82-2.13,7.71,19.78,3.49,25.99,26.9,20.11,43.7-7.47,21.35-27.5,34.91-44.1,48.76-8.78,7.33-16.29,15.23-23.48,24.1-7.54,9.3-16.71,13.57-28.22,16.16-24.39,5.49-50.99,9.68-75.79,4.58-21.85-4.49-43.55-17.74-51.93-39.27-1.85-4.75-9.59-2.68-7.71,2.13h0Z"/>
  <path class="cls-1" d="M295.03,71.48c-13.42-10.77-33.26-11.93-49.68-14.28s-33.62-4.43-50.47-2.9c-15.63,1.42-30.9,5.98-43.34,15.84-10.86,8.61-18.7,20.29-26.18,31.79-8.9,13.67-17.75,28.05-31.83,36.98-3.02,1.92-2.29,6.17.96,7.31,15.33,5.41,18.13,24.11,20.6,37.93,2.64,14.79,7.54,28.52,15.77,41.15,16.34,25.07,41.05,42.81,66.92,57.02,16.62,9.13,33.85,17.08,50.69,25.78,4.57,2.36,8.62-4.54,4.04-6.91-29.4-15.18-60.78-28.12-86.57-49.28-11.35-9.31-21.62-20.11-29.41-32.6-8.56-13.73-11.9-28.04-14.87-43.74s-9.1-31.45-25.03-37.07l.96,7.31c22.94-14.56,32.29-40.84,49.69-60.53,21.54-24.38,53.72-25.42,83.93-21.95,10.53,1.21,21.02,2.83,31.45,4.73,9.15,1.67,19.27,3.06,26.74,9.06,3.98,3.19,9.67-2.43,5.66-5.66h0Z"/>
  <path class="cls-1" d="M216.72,57.7c11.38-12.14,22.25-25.97,35.34-36.32,12.42-9.82,28.44-13.82,44.08-13.34,16.4.51,32.53,5.79,47.13,13.03s26.06,16.4,29.99,32.13c1.25,4.99,8.96,2.88,7.71-2.13-4.13-16.52-16.24-27.76-30.86-35.48-15.55-8.22-32.79-14.11-50.4-15.37-16.66-1.19-34.24,2.31-48.24,11.72-7.29,4.9-13.36,11.25-19.34,17.62-7.03,7.49-14.05,14.98-21.07,22.48-3.52,3.75,2.13,9.42,5.66,5.66h0Z"/>
  <path class="cls-1" d="M121.8,200.34c-20.51,10.31-35.89,29.51-41.24,51.88-2.98,12.49-2.96,25.78,3.2,37.32,5.13,9.6,13.71,16.98,22.89,22.57,22.68,13.78,50.77,16.06,71.14,34,10.08,8.88,18.66,19.46,30.12,26.71s23.81,11.12,36.56,13.17c27.28,4.39,58.93-3.78,69.26-32.23,1.76-4.85-5.97-6.94-7.71-2.13-8.69,23.95-36.79,30.28-59.41,26.64-12.1-1.95-24.25-5.76-34.65-12.37s-18.21-16.15-27.23-24.32c-17.41-15.78-39.26-20.79-60.4-29.53s-39.82-24.13-37.55-48.98c2.2-23.96,17.8-45.16,39.06-55.84,4.6-2.31.55-9.22-4.04-6.91h0Z"/>
  <path class="cls-1" d="M290.52,379.23c32.24,21.85,75.03,28.02,111.87,14.88,39.17-13.98,63.25-48.5,86.37-80.98,13.42-18.86,27.96-40.6,51.27-47.71,4.91-1.5,2.82-9.22-2.13-7.71-18.83,5.74-32.59,19.99-44.26,35.21-12.36,16.12-23.28,33.3-36.11,49.06-12.43,15.25-26.66,29.41-44.21,38.67-17.51,9.24-37.53,13.08-57.24,12.16-21.97-1.02-43.33-8.15-61.53-20.48-4.27-2.9-8.28,4.03-4.04,6.91h0Z"/>
  <path class="cls-1" d="M463.65,126.61c27.05,6.25,49.01,26.46,56.59,53.32,1.94,6.89,2.93,13.99,2.89,21.15-.05,7.28-1.56,14.44-1.68,21.7-.23,14.64,7.46,26.68,15.65,38.18,2.96,4.16,9.9.17,6.91-4.04-4.44-6.24-9.07-12.62-11.92-19.78-3.09-7.78-2.78-15.48-1.9-23.64,1.62-14.93.69-29.49-4.9-43.59-10.2-25.72-32.56-44.79-59.51-51.02-5.01-1.16-7.15,6.55-2.13,7.71h0Z"/>
  <path class="cls-1" d="M166.65,335.02c-11.27,11.91-11.26,29.15-5.68,43.74s15.09,31.29,28.91,40.15c14.86,9.53,34.71,9.97,51.75,11.25,19.24,1.45,38.72,2.24,57.43,7.31s35.07,13.73,46.72,28.74c3.15,4.06,8.78-1.64,5.66-5.66-19.22-24.75-51.13-32.98-80.87-36.08-18.55-1.94-37.39-2.02-55.8-5.22-8.08-1.41-16.14-3.67-22.83-8.59s-11.12-11.26-15.13-17.96c-8.93-14.92-18.67-37.03-4.5-52.02,3.54-3.74-2.11-9.41-5.66-5.66h0Z"/>
  <path class="cls-1" d="M474.08,325.72c5.22,7.28,8.8,15.77,8.74,24.85s-4.21,16.48-10.22,22.86c-11.87,12.58-26.93,22.78-41.97,31.17-15.61,8.7-32.45,14.84-47.7,24.23-14.14,8.72-27.37,19.1-37.43,32.43-3.1,4.11,3.84,8.1,6.91,4.04,18.11-24.01,46.01-35.74,72.15-48.52,13.15-6.43,25.58-14.23,37.13-23.21,10.33-8.02,21.71-17.04,26.62-29.59,5.56-14.21,1.31-30.3-7.31-42.31-2.97-4.15-9.92-.16-6.91,4.04h0Z"/>
  <path class="cls-1" d="M473.72,83.57c25.81,2.41,49.58,15.51,65.64,35.8,15.24,19.26,23.27,43.05,31.09,66,3.9,11.44,7.75,22.91,12.37,34.08,2.33,5.63,4.75,11.27,8.39,16.2,1.72,2.33,4.4,4.11,2.41,6.92-1.68,2.38-6.04,3.78-8.4,5.47-18.08,12.95-22.97,35.98-31.7,55.11-11.99,26.28-35.03,50.86-66.31,48.17-5.13-.44-5.1,7.56,0,8,28.17,2.42,52.29-16.04,66.32-39.05,6.73-11.03,11.01-23.14,15.84-35.06,4.49-11.07,9.96-23.01,19.88-30.27,4.25-3.11,10-5.03,12.51-10.01,3.04-6.01-1.47-10.11-4.66-14.73-7.78-11.26-11.72-25.88-16.13-38.72-8.49-24.73-16.34-50.52-31.65-72.07-17.8-25.03-44.97-41-75.6-43.86-5.12-.48-5.09,7.53,0,8h0Z"/>
  <path class="cls-1" d="M112.25,158.27c-15.7,0-30.86-5.73-45.93,1.35-13.11,6.16-21.84,18.85-26.42,32.22-5.47,15.97-3.95,32.68-7.55,48.91s-16.55,25.9-30.4,33.7c-2.67,1.5-2.52,5.37,0,6.91,18.47,11.26,31.5,29.33,44.96,45.84,15.11,18.54,30.23,37.08,45.34,55.61,13.52,16.58,26.99,32.66,45.27,44.21,16.49,10.42,35.35,17.24,54.71,19.69,17.2,2.18,37.91-.57,47.55-16.81,2.63-4.44-4.28-8.47-6.91-4.04-8.49,14.32-28.2,14.83-42.82,12.51-18.56-2.94-36.37-9.96-51.92-20.51-17.15-11.62-29.75-27.88-42.71-43.77-14.29-17.52-28.57-35.05-42.86-52.57s-27.44-35.42-46.58-47.09v6.91c11.74-6.62,23.8-14.78,30.07-27.14,7.24-14.26,5.44-31,8.09-46.35s8.47-30.3,21.65-38.81c14.52-9.37,30.6-2.79,46.46-2.79,5.15,0,5.16-8,0-8h0Z"/>
  <path class="cls-1" d="M76.28,356.8c-18.98,18.93-22.29,50.09-13.01,74.53,5.64,14.86,18.71,21.43,31.26,29.78,13.73,9.14,27.15,18.91,38.61,30.85,12.06,12.57,21.6,27.45,25.93,44.44.89,3.48,5.49,3.74,7.31.96,9.16-14.06,27.42-16.57,42.83-14.9,9.51,1.03,18.81,3.52,28.17,5.41,9.3,1.88,18.73,3.14,28.2,3.67s19.58.33,29.32-.65c8.88-.9,18.32-1.86,26.64-5.25,14.9-6.08,26.82-21.18,35.96-33.89,8.04-11.18,23.4-32.11,10.82-45.17-3.58-3.72-9.23,1.95-5.66,5.66,5.37,5.58.6,14.75-2.48,20.32-4.1,7.42-8.82,14.54-14.15,21.14-4.98,6.16-10.44,12.03-16.38,17.27-6.99,6.16-14.54,8.88-23.62,10.42-18.55,3.14-37.73,3.29-56.34.57-17.03-2.49-33.78-8.46-51.16-8-15.19.41-30.53,6.26-39.07,19.36l7.31.96c-7.17-28.17-27.33-49.99-49.92-67.17-5.94-4.52-12.07-8.77-18.29-12.91s-13.14-7.9-18.93-12.74c-10.74-8.98-13.32-25.55-13.21-38.85.13-14.86,4.84-29.53,15.51-40.17,3.65-3.64-2.01-9.3-5.66-5.66h0Z"/>
  <path class="cls-1" d="M359.18,490.69c17.54,4.98,35.89,9.86,54.27,7.49,17.31-2.23,31.41-12.09,46.08-20.73,16.05-9.45,32.58-18.06,49.53-25.78s35.97-15.93,54.99-11.22c5,1.24,7.13-6.47,2.13-7.71-17.48-4.33-34.77.71-50.91,7.51-17.09,7.21-33.74,15.57-49.92,24.64-15.25,8.55-30.22,20.51-47.53,24.46-18.85,4.29-38.41-1.23-56.51-6.37-4.96-1.41-7.08,6.31-2.13,7.71h0Z"/>
  <path class="cls-1" d="M583.75,256.28c22.52,18.33,32.02,48.36,23.08,76.16-4.57,14.23-13.84,25.03-24.24,35.4-9.46,9.43-19.09,18.95-24.09,31.6-4.98,12.59-4.85,26.83,4,37.6,3.27,3.98,8.9-1.71,5.66-5.66-8.5-10.34-5.07-25.48,1.17-36.03,7.32-12.4,19.29-21.33,28.67-32.05,18.17-20.77,25.25-49.75,16.48-76.25-4.72-14.26-13.43-26.95-25.08-36.43-3.96-3.22-9.65,2.4-5.66,5.66h0Z"/>
  <path class="cls-1" d="M100.8,458.04c-29.15,9.08-41.66,39.32-44.86,67.28-2.09,18.3-1.77,36.92-2.2,55.32s-.9,37.89-1.35,56.84-1.02,39.14-8.58,57.39c-1.47,3.56,3.12,5.84,5.88,4.52,32.85-15.75,68.41-24.67,101.77-39.2,16.04-6.98,31.45-15.39,45.21-26.26,15.75-12.46,28.28-28.48,40.29-44.44,6.53-8.68,12.34-17.96,15.23-28.53,3.06-11.19,3.2-22.94,3.26-34.46.02-5.15-7.98-5.16-8,0-.05,10.24-.08,20.62-2.53,30.63-2.31,9.42-7.12,17.7-12.77,25.5-11.34,15.64-23.77,31.39-38.74,43.72-26.97,22.21-60.97,33.36-93.46,44.71-18.37,6.42-36.72,13-54.29,21.42l5.88,4.52c6.05-14.61,7.8-30.39,8.46-46.07.74-17.43.91-34.9,1.32-52.34s.7-35.38,1.29-53.07c.55-16.35,1.75-33.37,8.39-48.55,6.14-14.05,16.96-26.54,31.94-31.21,4.9-1.53,2.81-9.25-2.13-7.71h0Z"/>
  <path class="cls-1" d="M312.7,525.17c11.15,27.74,31.8,49.36,52.23,70.57,22.7,23.56,44.19,48.2,63.89,74.34,11.25,14.92,21.94,30.24,32.1,45.92,1.78,2.75,6.48,2.55,7.31-.96,3.85-16.24-1.98-32.08-2.17-48.35-.2-17.17,4.48-33.86,8-50.52,6.35-30.07,6.24-60.72-1.99-90.45-4.58-16.55-11.53-32.41-20.51-47.05-2.69-4.38-9.61-.37-6.91,4.04,15.63,25.47,24.67,54.67,25.95,84.54.65,15.15-.81,30.12-3.87,44.95-3.16,15.31-7.3,30.5-8.41,46.15-.62,8.75.17,17.3,1.45,25.95,1.41,9.52,2.99,19.09.74,28.61l7.31-.96c-17.51-27.01-36.64-52.96-57.3-77.65-19.95-23.84-42.46-45.23-62.75-68.72-11.06-12.8-21.03-26.76-27.37-42.54-1.9-4.72-9.64-2.66-7.71,2.13h0Z"/>
  <path class="cls-1" d="M600.28,264.54c13.38-4.95,28.65-4.26,42.25-.52,14.7,4.04,27.09,13.57,39.43,22.15,12.94,9,26.17,17.02,40.98,22.59s31.01,8.71,47.08,9.4l-1.06-7.86c-13.98,4.61-25.48,13.57-37.81,21.3s-25.82,14.12-39.81,18.62c-27.82,8.94-57.71,10.65-85.86,2.17-4.94-1.49-7.05,6.23-2.13,7.71,28.34,8.53,58.72,7.31,86.92-1.18,14.18-4.27,27.88-10.31,40.64-17.82s25.34-18.19,40.17-23.08c4.29-1.41,3.52-7.66-1.06-7.86-16.55-.71-32.84-4.18-48.21-10.38-15.71-6.34-29.31-16.08-43.16-25.63-12.42-8.55-24.96-16.3-39.95-19.24-13.29-2.61-27.71-2.83-40.56,1.92-4.79,1.77-2.72,9.51,2.13,7.71h0Z"/>
  <path class="cls-1" d="M80.48,650.68c19.22-13.17,31.06-34.38,43.75-53.35,14.49-21.65,29.16-43.21,41.85-65.99,2.51-4.5-4.4-8.54-6.91-4.04-12.07,21.68-25.96,42.24-39.74,62.85-12.47,18.63-24.08,40.67-42.98,53.62-4.22,2.89-.22,9.83,4.04,6.91h0Z"/>
  <path class="cls-1" d="M85.78,589.46c18.37-2.48,36.02-7.85,52.76-15.81,4.65-2.21.59-9.11-4.04-6.91-16.09,7.65-33.2,12.62-50.85,15-5.08.69-2.92,8.4,2.13,7.71h0Z"/>
  <path class="cls-1" d="M137.8,626.46c2-17.91,5.32-36.67-.68-54.18-1.66-4.84-9.39-2.76-7.71,2.13,5.74,16.76,2.31,34.9.39,52.05-.57,5.11,7.43,5.07,8,0h0Z"/>
  <path class="cls-1" d="M166.87,590.55c2.8-10.25,5.53-20.51,6.84-31.08,1.06-8.55,2.84-20.87-1.59-28.7-2.54-4.48-9.45-.45-6.91,4.04,1.99,3.51,1.37,8.88,1.32,12.81-.06,4.85-.45,9.69-1.2,14.48-1.4,8.91-3.8,17.63-6.17,26.32-1.36,4.97,6.36,7.09,7.71,2.13h0Z"/>
  <path class="cls-1" d="M96.08,536.03c21.77-1.05,43.56-.93,65.31.36,5.14.3,5.13-7.7,0-8-21.76-1.29-43.55-1.41-65.31-.36-5.13.25-5.15,8.25,0,8h0Z"/>
  <path class="cls-1" d="M108.02,506.34c11-4.7,22.83-6.22,34.69-4.94,5.11.55,5.07-7.45,0-8-13.37-1.44-26.4.76-38.73,6.03-4.72,2.02-.65,8.91,4.04,6.91h0Z"/>
  <path class="cls-1" d="M206.71,556.75c8.15-11.73,8.92-26.84,2.63-39.55-2.28-4.61-9.19-.57-6.91,4.04,5.07,10.25,3.84,22.16-2.63,31.47-2.95,4.24,3.99,8.24,6.91,4.04h0Z"/>
  <path class="cls-1" d="M447,646.31c-9.91-30.47-27.71-57.37-39.57-87-5.55-13.86-8.23-28.76-14.31-42.4-6.21-13.94-17.41-22.74-29.67-31.18-4.25-2.93-8.26,4-4.04,6.91,12.74,8.78,23.11,17.75,28.53,32.67,4.9,13.48,8.05,27.39,13.64,40.66,11.76,27.87,28.31,53.59,37.7,82.47,1.59,4.88,9.31,2.79,7.71-2.13h0Z"/>
  <path class="cls-1" d="M415.91,614.78c-.78-10.6-8.76-23.59-2.42-33.56,2.77-4.36-4.15-8.37-6.91-4.04-7.79,12.25.39,24.84,1.32,37.6.37,5.1,8.38,5.14,8,0h0Z"/>
  <path class="cls-1" d="M452.52,597.53c-10.53-13-24.28-22.62-39.94-28.4-4.84-1.79-6.92,5.94-2.13,7.71,14.39,5.32,26.78,14.44,36.41,26.35,3.24,4,8.87-1.69,5.66-5.66h0Z"/>
  <path class="cls-1" d="M387.55,571.17c-4.59-13.11-11.08-33.6,4.34-42.36,4.48-2.54.45-9.46-4.04-6.91-19.02,10.8-13.93,34.5-8.02,51.4,1.69,4.83,9.42,2.75,7.71-2.13h0Z"/>
  <path class="cls-1" d="M446.21,543.43c-17.6-8.18-35.63-15.36-54.06-21.47-4.9-1.63-7,6.1-2.13,7.71,17.77,5.9,35.17,12.78,52.14,20.67,4.64,2.16,8.71-4.74,4.04-6.91h0Z"/>
  <path class="cls-1" d="M356.22,540.64c.9-13.19-.02-26.3-2.61-39.26-1.01-5.04-8.72-2.91-7.71,2.13,2.45,12.27,3.17,24.66,2.32,37.13-.35,5.14,7.65,5.12,8,0h0Z"/>
  <path class="cls-1" d="M437.45,510.13c-9.11-2.51-16.96-7.85-22.43-15.58-2.95-4.17-9.89-.18-6.91,4.04,6.71,9.47,16,16.16,27.22,19.26,4.97,1.37,7.09-6.34,2.13-7.71h0Z"/>
  <path class="cls-1" d="M613.37,309.05c32.13,1.9,63.56,11.13,95.9,9.82,5.13-.21,5.16-8.21,0-8-32.34,1.31-63.78-7.92-95.9-9.82-5.14-.3-5.13,7.7,0,8h0Z"/>
  <path class="cls-1" d="M673.3,310.35c6.96-.92,13.44-3,19.51-6.56,4.44-2.61.41-9.53-4.04-6.91-4.77,2.81-9.96,4.75-15.47,5.47-2.16.29-3.98,1.63-4,4-.02,1.94,1.86,4.28,4,4h0Z"/>
  <path class="cls-1" d="M671.62,316.12c.91-.14,5.09,6.36,6.04,7.62,2.45,3.24,4.89,6.48,7.34,9.72,3.06,4.06,10.01.08,6.91-4.04-3.82-5.06-7.63-10.14-11.47-15.19-2.91-3.82-5.87-6.64-10.95-5.83s-2.92,8.51,2.13,7.71h0Z"/>
  <path class="cls-1" d="M622.21,306.94c13.24-1.76,25.11-7.22,34.87-16.39,3.76-3.53-1.9-9.18-5.66-5.66-8.07,7.58-18.2,12.58-29.21,14.04-5.03.67-5.1,8.68,0,8h0Z"/>
  <path class="cls-1" d="M620.87,307.14c2.78,3.38,3.49,8.01,5.75,11.72,1.92,3.14,4.45,5.81,7.36,8.04,6.32,4.87,14,7.52,21.67,9.43,5,1.24,7.13-6.47,2.13-7.71-7.04-1.75-14.41-4.04-20-8.88s-6.55-12.55-11.24-18.26c-3.28-3.98-8.91,1.71-5.66,5.66h0Z"/>
</svg>