<?xml version="1.0" encoding="UTF-8"?>
<svg xmlns="http://www.w3.org/2000/svg" viewBox="0 0 820 820">
  <defs>
    <style>
      .cls-1 {
        fill: gray;
      }

      .cls-1, .cls-2, .cls-3, .cls-4, .cls-5, .cls-6, .cls-7, .cls-8 {
        stroke-miterlimit: 10;
      }

      .cls-1, .cls-2, .cls-3, .cls-5, .cls-6, .cls-7, .cls-8 {
        stroke: #000;
        stroke-width: 8px;
      }

      .cls-2 {
        fill: #fcee21;
      }

      .cls-3 {
        fill: #d14842;
      }

      .cls-4 {
        stroke: #b3b3b3;
      }

      .cls-4, .cls-9 {
        fill: #b3b3b3;
      }

      .cls-9 {
        stroke-width: 0px;
      }

      .cls-5 {
        fill: #f7931e;
      }

      .cls-6 {
        fill: #a4e7ff;
      }

      .cls-7 {
        fill: #0071bc;
      }

      .cls-8 {
        fill: #666;
      }
    </style>
  </defs>
  <g id="Calque_2" data-name="Calque 2">
    <rect class="cls-5" x="85" y="230" width="279" height="33" rx="5" ry="5"/>
    <rect class="cls-5" x="541" y="306" width="116" height="28" rx="5" ry="5"/>
    <rect class="cls-5" x="90" y="474" width="24" height="131" rx="5" ry="5"/>
    <ellipse class="cls-2" cx="700" cy="497" rx="36" ry="57"/>
    <rect class="cls-7" x="559" y="334" width="83" height="49"/>
    <rect class="cls-3" x="261" y="383" width="441" height="234" rx="61" ry="61"/>
    <rect class="cls-7" x="114" y="263" width="219" height="354"/>
    <rect class="cls-6" x="156" y="314" width="142" height="130"/>
    <ellipse class="cls-1" cx="209" cy="626.5" rx="99" ry="96.5"/>
    <ellipse class="cls-1" cx="407" cy="624.5" rx="99" ry="96.5"/>
    <ellipse class="cls-1" cx="609" cy="624.5" rx="99" ry="96.5"/>
    <g id="Calque_3" data-name="Calque 3">
      <circle class="cls-8" cx="209.5" cy="626.5" r="57.5"/>
      <circle class="cls-8" cx="409.5" cy="626.5" r="57.5"/>
      <circle class="cls-8" cx="608.5" cy="627.5" r="57.5"/>
    </g>
    <rect class="cls-7" x="194" y="618" width="431" height="18"/>
  </g>
  <g id="Calque_4" data-name="Calque 4">
    <path class="cls-9" d="M363.17,93.68c-7.45,1.65-16.86,5.32-19.21,13.51-2.72,9.47,7.96,12.43,15.02,13.19s19.64.1,23.09-7.51c4.33-9.51-9.05-12.95-14.1-17.88-4.6-4.5-11.68,2.56-7.07,7.07,2.41,2.36,7.18,7.34,10.72,7.72,1.39.93,1.52.69.38-.74-1.08.37-2.18.69-3.29.94-2.09.46-4.18.65-6.32.62s-4.22-.3-6.3-.82c-1-.26-1.99-.56-2.96-.9.5,1.24,1.04,1.05,1.63-.59,1.84-1.07,3.14-2.55,5.23-3.38,1.87-.74,3.89-1.15,5.84-1.58,6.28-1.39,3.62-11.04-2.66-9.64h0Z"/>
    <path class="cls-9" d="M450.6,126.11c-15.84-7.63-31.74,0-44.1,10.51-5.55,4.72-10.48,10.1-9.67,17.88.73,6.99,5.67,13.08,11.98,15.92,7.5,3.39,15.81,2.68,23.68,1.17,4.31-.83,8.58-2.03,12.95-2.54,5.05-.58,10.03.1,15.05.64,7.7.82,15.89.77,22.56-3.72,5.94-4,8.85-10.69,7.8-17.77-3.29-22.01-29.2-20.98-45.83-20.72-6.43.1-6.45,10.1,0,10,7.96-.12,16.3-1.22,24.07.96,6.28,1.76,13.81,7.29,11.77,14.83-1.84,6.77-10.95,7.13-16.55,6.78-8.14-.52-15.63-1.69-23.78-.3-7.54,1.29-15.38,4.19-23.13,2.91-5.57-.92-13.23-6.14-9.95-12.72,1.36-2.74,4.48-4.88,6.79-6.81,3.16-2.64,6.54-5.07,10.21-6.95,6.51-3.32,14.31-4.72,21.12-1.44,5.77,2.78,10.85-5.84,5.05-8.63h0Z"/>
    <path class="cls-9" d="M560.76,193.19c-7.62.03-15.25.05-22.87.09s-15.46-.47-22.92.88c-11.69,2.11-20.52,11.95-22.55,23.51-2.09,11.92,3.51,23.82,12.77,31.26,10.54,8.47,23.7,8.98,36.49,10.9,6.38.96,12.67,2.4,18.11,6.03,6.07,4.06,11.3,9.03,17.65,12.75,11.38,6.67,25.13,13.88,38.57,9.08,12.26-4.38,16.38-16.96,18.4-28.66,2.54-14.73,4.17-29.09-.4-43.6-2.47-7.83-6.02-13.28-12.05-18.83-5.44-5.01-11.25-9.75-18.52-11.71-16.34-4.4-31.75,4.31-46.98,8.77-6.16,1.81-3.54,11.46,2.66,9.64,11.27-3.3,22.36-9.43,34.32-9.59,6.25-.09,11.7,1.87,16.6,5.7,4.19,3.27,9.31,7.39,11.86,12.1,6.03,11.16,5.88,24.74,4.14,36.9-1.3,9.1-2,22.84-10.52,28.45-10.11,6.66-23.39-1.35-32.27-6.47-9.45-5.45-16.95-13.85-27.36-17.55-18.03-6.4-47.55-.91-53.37-25.38-2.53-10.63,4.16-21.92,15.13-23.68,6.56-1.06,13.64-.49,20.26-.52,7.62-.04,15.25-.06,22.87-.09,6.43-.02,6.45-10.02,0-10h0Z"/>
    <path class="cls-9" d="M299.91,84.69c-2.22-.63-4.58-.34-6.59.78-2.63,1.46-4.35,4.67-3.12,7.58,1.72,4.07,8.42,5.64,11.98,3.18,4.09-2.82,4.5-9.12-.28-11.55-3.7-1.88-8.61-.83-11.34,2.26-1.73,1.96-2.07,5.17,0,7.07,1.89,1.74,5.22,2.09,7.07,0,.15-.18.3-.34.48-.5-.57.41-.63.47-.17.18l.31-.16c-.67.27-.74.32-.22.16.45-.09.45-.09.02-.01-.44.06-.43.07.02.06-.76-.13-.86-.14-.31-.02-.68-.19-1.14-.64-1.39-1.35-.89-.78-1.15-1.76-.78-2.95.14-.48.38-.89.74-1.24.46-.44,1.15-.78,1.79-.77,1.16.02.11,0-.25-.12-.26-.09-.52-.19-.77-.29.62.3.72.32.33.05l1.79,1.79-.13-.24.68,2.52.05-.35-.68,2.52c-.19.33-.44.6-.77.81-.61.22-.73.28-.38.17.38-.09.23-.08-.45.06-.74-.15-.83-.15-.29,0,2.51.72,5.55-.87,6.15-3.49s-.8-5.38-3.49-6.15h0Z"/>
    <polygon class="cls-4" points="363.27 95.94 348.6 106.42 354 114.39 371.65 114.39 376.01 106.42 363.27 95.94"/>
    <polygon class="cls-4" points="435.44 127.87 410.31 137.94 399.5 154.5 410.13 165.4 445.2 162.65 467.02 165.11 485 159.97 477.75 133.5 454.07 129.5 435.44 127.87"/>
    <polygon class="cls-4" points="536.5 195.5 506.5 199.5 500.5 215.5 500.5 236.48 522.91 251.94 556.72 258.52 603.47 284.05 623.92 275.27 632.07 238 624.16 205.89 603.06 190 566.29 194.06 546 198.25 536.5 195.5"/>
  </g>
</svg>